<?xml version="1.0" encoding="UTF-8" standalone="yes"?><svg xmlns="http://www.w3.org/2000/svg" xmlns:xlink="http://www.w3.org/1999/xlink" height="337px" style="width:427px;height:337px;" version="1.1" viewBox="0 0 427 337" width="427px"><defs><filter height="300%" id="f1" width="300%" x="-1" y="-1"><feGaussianBlur result="blurOut" stdDeviation="2.0"/><feColorMatrix in="blurOut" result="blurOut2" type="matrix" values="0 0 0 0 0 0 0 0 0 0 0 0 0 0 0 0 0 0 .4 0"/><feOffset dx="4.0" dy="4.0" in="blurOut2" result="blurOut3"/><feBlend in="SourceGraphic" in2="blurOut3" mode="normal"/></filter></defs><g><rect fill="#E0FFFF" filter="url(#f1)" height="86.4141" style="stroke: #A80036; stroke-width: 1.5;" width="401" x="6" y="133"/><rect fill="#E0FFFF" height="32" style="stroke: #A80036; stroke-width: 1.5;" width="401" x="6" y="133"/><ellipse cx="172.25" cy="149" fill="#B4A7E5" rx="11" ry="11" style="stroke: #A80036; stroke-width: 1.0;"/><path d="M168.6719,144.7656 L168.6719,142.6094 L176.0625,142.6094 L176.0625,144.7656 L173.5938,144.7656 L173.5938,152.8438 L176.0625,152.8438 L176.0625,155 L168.6719,155 L168.6719,152.8438 L171.1406,152.8438 L171.1406,144.7656 L168.6719,144.7656 Z "/><text fill="#000000" font-family="sans-serif" font-size="12" font-style="italic" lengthAdjust="spacingAndGlyphs" textLength="60" x="192.75" y="153.1543">Activation</text><line style="stroke: #A80036; stroke-width: 1.5;" x1="7" x2="406" y1="165" y2="165"/><line style="stroke: #A80036; stroke-width: 1.5;" x1="7" x2="406" y1="173" y2="173"/><text fill="#000000" font-family="sans-serif" font-size="11" lengthAdjust="spacingAndGlyphs" textLength="24" x="12" y="187.2104">void</text><text fill="#000000" font-family="sans-serif" font-size="11" font-weight="bold" lengthAdjust="spacingAndGlyphs" textLength="62" x="40" y="187.2104">activation</text><text fill="#000000" font-family="sans-serif" font-size="11" lengthAdjust="spacingAndGlyphs" textLength="99" x="102" y="187.2104">(INDArray tensor)</text><text fill="#000000" font-family="sans-serif" font-size="11" lengthAdjust="spacingAndGlyphs" textLength="51" x="12" y="200.0151">INDArray</text><text fill="#000000" font-family="sans-serif" font-size="11" font-weight="bold" lengthAdjust="spacingAndGlyphs" textLength="61" x="67" y="200.0151">derivative</text><text fill="#000000" font-family="sans-serif" font-size="11" lengthAdjust="spacingAndGlyphs" textLength="99" x="128" y="200.0151">(INDArray tensor)</text><text fill="#000000" font-family="sans-serif" font-size="11" lengthAdjust="spacingAndGlyphs" textLength="51" x="12" y="212.8198">INDArray</text><text fill="#000000" font-family="sans-serif" font-size="11" font-weight="bold" lengthAdjust="spacingAndGlyphs" textLength="105" x="67" y="212.8198">backpropagation</text><text fill="#000000" font-family="sans-serif" font-size="11" lengthAdjust="spacingAndGlyphs" textLength="229" x="172" y="212.8198">(INDArray preoutput, INDArray epsilon );</text><rect fill="#E0FFFF" filter="url(#f1)" height="48" style="stroke: #A80036; stroke-width: 1.5;" width="79" x="6" y="280"/><rect fill="#E0FFFF" height="32" style="stroke: #A80036; stroke-width: 1.5;" width="79" x="6" y="280"/><ellipse cx="21" cy="296" fill="#ADD1B2" rx="11" ry="11" style="stroke: #A80036; stroke-width: 1.0;"/><path d="M23.9688,301.6406 Q23.3906,301.9375 22.75,302.0859 Q22.1094,302.2344 21.4063,302.2344 Q18.9063,302.2344 17.5859,300.5859 Q16.2656,298.9375 16.2656,295.8125 Q16.2656,292.6875 17.5859,291.0313 Q18.9063,289.375 21.4063,289.375 Q22.1094,289.375 22.7578,289.5313 Q23.4063,289.6875 23.9688,289.9844 L23.9688,292.7031 Q23.3438,292.125 22.75,291.8516 Q22.1563,291.5781 21.5313,291.5781 Q20.1875,291.5781 19.5,292.6484 Q18.8125,293.7188 18.8125,295.8125 Q18.8125,297.9063 19.5,298.9766 Q20.1875,300.0469 21.5313,300.0469 Q22.1563,300.0469 22.75,299.7734 Q23.3438,299.5 23.9688,298.9219 L23.9688,301.6406 Z "/><text fill="#000000" font-family="sans-serif" font-size="12" lengthAdjust="spacingAndGlyphs" textLength="47" x="35" y="300.1543">Identity</text><line style="stroke: #A80036; stroke-width: 1.5;" x1="7" x2="84" y1="312" y2="312"/><line style="stroke: #A80036; stroke-width: 1.5;" x1="7" x2="84" y1="320" y2="320"/><rect fill="#E0FFFF" filter="url(#f1)" height="48" style="stroke: #A80036; stroke-width: 1.5;" width="64" x="120.5" y="280"/><rect fill="#E0FFFF" height="32" style="stroke: #A80036; stroke-width: 1.5;" width="64" x="120.5" y="280"/><ellipse cx="135.5" cy="296" fill="#ADD1B2" rx="11" ry="11" style="stroke: #A80036; stroke-width: 1.0;"/><path d="M138.4688,301.6406 Q137.8906,301.9375 137.25,302.0859 Q136.6094,302.2344 135.9063,302.2344 Q133.4063,302.2344 132.0859,300.5859 Q130.7656,298.9375 130.7656,295.8125 Q130.7656,292.6875 132.0859,291.0313 Q133.4063,289.375 135.9063,289.375 Q136.6094,289.375 137.2578,289.5313 Q137.9063,289.6875 138.4688,289.9844 L138.4688,292.7031 Q137.8438,292.125 137.25,291.8516 Q136.6563,291.5781 136.0313,291.5781 Q134.6875,291.5781 134,292.6484 Q133.3125,293.7188 133.3125,295.8125 Q133.3125,297.9063 134,298.9766 Q134.6875,300.0469 136.0313,300.0469 Q136.6563,300.0469 137.25,299.7734 Q137.8438,299.5 138.4688,298.9219 L138.4688,301.6406 Z "/><text fill="#000000" font-family="sans-serif" font-size="12" lengthAdjust="spacingAndGlyphs" textLength="32" x="149.5" y="300.1543">RELU</text><line style="stroke: #A80036; stroke-width: 1.5;" x1="121.5" x2="183.5" y1="312" y2="312"/><line style="stroke: #A80036; stroke-width: 1.5;" x1="121.5" x2="183.5" y1="320" y2="320"/><rect fill="#E0FFFF" filter="url(#f1)" height="48" style="stroke: #A80036; stroke-width: 1.5;" width="81" x="220" y="280"/><rect fill="#E0FFFF" height="32" style="stroke: #A80036; stroke-width: 1.5;" width="81" x="220" y="280"/><ellipse cx="235" cy="296" fill="#ADD1B2" rx="11" ry="11" style="stroke: #A80036; stroke-width: 1.0;"/><path d="M237.9688,301.6406 Q237.3906,301.9375 236.75,302.0859 Q236.1094,302.2344 235.4063,302.2344 Q232.9063,302.2344 231.5859,300.5859 Q230.2656,298.9375 230.2656,295.8125 Q230.2656,292.6875 231.5859,291.0313 Q232.9063,289.375 235.4063,289.375 Q236.1094,289.375 236.7578,289.5313 Q237.4063,289.6875 237.9688,289.9844 L237.9688,292.7031 Q237.3438,292.125 236.75,291.8516 Q236.1563,291.5781 235.5313,291.5781 Q234.1875,291.5781 233.5,292.6484 Q232.8125,293.7188 232.8125,295.8125 Q232.8125,297.9063 233.5,298.9766 Q234.1875,300.0469 235.5313,300.0469 Q236.1563,300.0469 236.75,299.7734 Q237.3438,299.5 237.9688,298.9219 L237.9688,301.6406 Z "/><text fill="#000000" font-family="sans-serif" font-size="12" lengthAdjust="spacingAndGlyphs" textLength="49" x="249" y="300.1543">Sigmoid</text><line style="stroke: #A80036; stroke-width: 1.5;" x1="221" x2="300" y1="312" y2="312"/><line style="stroke: #A80036; stroke-width: 1.5;" x1="221" x2="300" y1="320" y2="320"/><rect fill="#E0FFFF" filter="url(#f1)" height="48" style="stroke: #A80036; stroke-width: 1.5;" width="82" x="336.5" y="280"/><rect fill="#E0FFFF" height="32" style="stroke: #A80036; stroke-width: 1.5;" width="82" x="336.5" y="280"/><ellipse cx="351.5" cy="296" fill="#ADD1B2" rx="11" ry="11" style="stroke: #A80036; stroke-width: 1.0;"/><path d="M354.4688,301.6406 Q353.8906,301.9375 353.25,302.0859 Q352.6094,302.2344 351.9063,302.2344 Q349.4063,302.2344 348.0859,300.5859 Q346.7656,298.9375 346.7656,295.8125 Q346.7656,292.6875 348.0859,291.0313 Q349.4063,289.375 351.9063,289.375 Q352.6094,289.375 353.2578,289.5313 Q353.9063,289.6875 354.4688,289.9844 L354.4688,292.7031 Q353.8438,292.125 353.25,291.8516 Q352.6563,291.5781 352.0313,291.5781 Q350.6875,291.5781 350,292.6484 Q349.3125,293.7188 349.3125,295.8125 Q349.3125,297.9063 350,298.9766 Q350.6875,300.0469 352.0313,300.0469 Q352.6563,300.0469 353.25,299.7734 Q353.8438,299.5 354.4688,298.9219 L354.4688,301.6406 Z "/><text fill="#000000" font-family="sans-serif" font-size="12" lengthAdjust="spacingAndGlyphs" textLength="50" x="365.5" y="300.1543">Softmax</text><line style="stroke: #A80036; stroke-width: 1.5;" x1="337.5" x2="417.5" y1="312" y2="312"/><line style="stroke: #A80036; stroke-width: 1.5;" x1="337.5" x2="417.5" y1="320" y2="320"/><rect fill="#FEFECE" filter="url(#f1)" height="48" style="stroke: #A80036; stroke-width: 1.5;" width="125" x="65" y="8"/><ellipse cx="80" cy="24" fill="#ADD1B2" rx="11" ry="11" style="stroke: #A80036; stroke-width: 1.0;"/><path d="M82.9688,29.6406 Q82.3906,29.9375 81.75,30.0859 Q81.1094,30.2344 80.4063,30.2344 Q77.9063,30.2344 76.5859,28.5859 Q75.2656,26.9375 75.2656,23.8125 Q75.2656,20.6875 76.5859,19.0313 Q77.9063,17.375 80.4063,17.375 Q81.1094,17.375 81.7578,17.5313 Q82.4063,17.6875 82.9688,17.9844 L82.9688,20.7031 Q82.3438,20.125 81.75,19.8516 Q81.1563,19.5781 80.5313,19.5781 Q79.1875,19.5781 78.5,20.6484 Q77.8125,21.7188 77.8125,23.8125 Q77.8125,25.9063 78.5,26.9766 Q79.1875,28.0469 80.5313,28.0469 Q81.1563,28.0469 81.75,27.7734 Q82.3438,27.5 82.9688,26.9219 L82.9688,29.6406 Z "/><text fill="#000000" font-family="sans-serif" font-size="12" lengthAdjust="spacingAndGlyphs" textLength="93" x="94" y="28.1543">FullyConnected</text><line style="stroke: #A80036; stroke-width: 1.5;" x1="66" x2="189" y1="40" y2="40"/><line style="stroke: #A80036; stroke-width: 1.5;" x1="66" x2="189" y1="48" y2="48"/><rect fill="#FEFECE" filter="url(#f1)" height="48" style="stroke: #A80036; stroke-width: 1.5;" width="120" x="225.5" y="8"/><ellipse cx="240.5" cy="24" fill="#ADD1B2" rx="11" ry="11" style="stroke: #A80036; stroke-width: 1.0;"/><path d="M243.4688,29.6406 Q242.8906,29.9375 242.25,30.0859 Q241.6094,30.2344 240.9063,30.2344 Q238.4063,30.2344 237.0859,28.5859 Q235.7656,26.9375 235.7656,23.8125 Q235.7656,20.6875 237.0859,19.0313 Q238.4063,17.375 240.9063,17.375 Q241.6094,17.375 242.2578,17.5313 Q242.9063,17.6875 243.4688,17.9844 L243.4688,20.7031 Q242.8438,20.125 242.25,19.8516 Q241.6563,19.5781 241.0313,19.5781 Q239.6875,19.5781 239,20.6484 Q238.3125,21.7188 238.3125,23.8125 Q238.3125,25.9063 239,26.9766 Q239.6875,28.0469 241.0313,28.0469 Q241.6563,28.0469 242.25,27.7734 Q242.8438,27.5 243.4688,26.9219 L243.4688,29.6406 Z "/><text fill="#000000" font-family="sans-serif" font-size="12" lengthAdjust="spacingAndGlyphs" textLength="88" x="254.5" y="28.1543">Convolution2D</text><line style="stroke: #A80036; stroke-width: 1.5;" x1="226.5" x2="344.5" y1="40" y2="40"/><line style="stroke: #A80036; stroke-width: 1.5;" x1="226.5" x2="344.5" y1="48" y2="48"/><path d="M140.7228,56.1024 C151.5154,75.7749 167.0979,104.1784 180.3874,128.4023 " fill="none" style="stroke: #A80036; stroke-width: 1.0;"/><polygon fill="#A80036" points="182.8405,132.8738,182.0187,123.0593,180.4357,128.4901,175.0048,126.907,182.8405,132.8738" style="stroke: #A80036; stroke-width: 1.0;"/><text fill="#000000" font-family="sans-serif" font-size="13" lengthAdjust="spacingAndGlyphs" textLength="5" x="166.5" y="99.0669">f</text><path d="M272.2772,56.1024 C261.4846,75.7749 245.9021,104.1784 232.6126,128.4023 " fill="none" style="stroke: #A80036; stroke-width: 1.0;"/><polygon fill="#A80036" points="230.1595,132.8738,237.9952,126.907,232.5643,128.4901,230.9813,123.0593,230.1595,132.8738" style="stroke: #A80036; stroke-width: 1.0;"/><text fill="#000000" font-family="sans-serif" font-size="13" lengthAdjust="spacingAndGlyphs" textLength="5" x="255.5" y="99.0669">f</text><path d="M136.1591,231.9232 C115.0852,248.6776 93.0673,266.1825 76.0077,279.7454 " fill="none" style="stroke: #A80036; stroke-width: 1.0; stroke-dasharray: 7.0,7.0;"/><polygon fill="none" points="131.9812,226.3021,151.9927,219.335,140.6937,237.2608,131.9812,226.3021" style="stroke: #A80036; stroke-width: 1.0;"/><path d="M180.4028,237.86 C174.1245,252.7419 167.7811,267.7781 162.7324,279.7454 " fill="none" style="stroke: #A80036; stroke-width: 1.0; stroke-dasharray: 7.0,7.0;"/><polygon fill="none" points="173.9944,235.0413,188.2181,219.335,186.8935,240.4832,173.9944,235.0413" style="stroke: #A80036; stroke-width: 1.0;"/><path d="M232.5972,237.86 C238.8755,252.7419 245.2189,267.7781 250.2676,279.7454 " fill="none" style="stroke: #A80036; stroke-width: 1.0; stroke-dasharray: 7.0,7.0;"/><polygon fill="none" points="226.1065,240.4832,224.7819,219.335,239.0056,235.0413,226.1065,240.4832" style="stroke: #A80036; stroke-width: 1.0;"/><path d="M280.5519,231.4306 C303.1337,248.334 326.8005,266.0495 345.0974,279.7454 " fill="none" style="stroke: #A80036; stroke-width: 1.0; stroke-dasharray: 7.0,7.0;"/><polygon fill="none" points="276.2093,236.924,264.3928,219.335,284.5988,225.7161,276.2093,236.924" style="stroke: #A80036; stroke-width: 1.0;"/></g></svg>