<?xml version="1.0" encoding="UTF-8" standalone="yes"?><svg xmlns="http://www.w3.org/2000/svg" xmlns:xlink="http://www.w3.org/1999/xlink" height="266px" style="width:686px;height:266px;" version="1.1" viewBox="0 0 686 266" width="686px"><defs><filter height="300%" id="f1" width="300%" x="-1" y="-1"><feGaussianBlur result="blurOut" stdDeviation="2.0"/><feColorMatrix in="blurOut" result="blurOut2" type="matrix" values="0 0 0 0 0 0 0 0 0 0 0 0 0 0 0 0 0 0 .4 0"/><feOffset dx="4.0" dy="4.0" in="blurOut2" result="blurOut3"/><feBlend in="SourceGraphic" in2="blurOut3" mode="normal"/></filter></defs><g><rect fill="#D3D3D3" filter="url(#f1)" height="60.8047" style="stroke: #A80036; stroke-width: 1.5;" width="177" x="199.5" y="197"/><rect fill="#D3D3D3" height="32" style="stroke: #A80036; stroke-width: 1.5;" width="177" x="199.5" y="197"/><ellipse cx="249.25" cy="213" fill="#ADD1B2" rx="11" ry="11" style="stroke: #A80036; stroke-width: 1.0;"/><path d="M252.2188,218.6406 Q251.6406,218.9375 251,219.0859 Q250.3594,219.2344 249.6563,219.2344 Q247.1563,219.2344 245.8359,217.5859 Q244.5156,215.9375 244.5156,212.8125 Q244.5156,209.6875 245.8359,208.0313 Q247.1563,206.375 249.6563,206.375 Q250.3594,206.375 251.0078,206.5313 Q251.6563,206.6875 252.2188,206.9844 L252.2188,209.7031 Q251.5938,209.125 251,208.8516 Q250.4063,208.5781 249.7813,208.5781 Q248.4375,208.5781 247.75,209.6484 Q247.0625,210.7188 247.0625,212.8125 Q247.0625,214.9063 247.75,215.9766 Q248.4375,217.0469 249.7813,217.0469 Q250.4063,217.0469 251,216.7734 Q251.5938,216.5 252.2188,215.9219 L252.2188,218.6406 Z "/><text fill="#000000" font-family="sans-serif" font-size="12" lengthAdjust="spacingAndGlyphs" textLength="69" x="269.75" y="217.1543">GraphPanel</text><line style="stroke: #A80036; stroke-width: 1.5;" x1="200.5" x2="375.5" y1="229" y2="229"/><line style="stroke: #A80036; stroke-width: 1.5;" x1="200.5" x2="375.5" y1="237" y2="237"/><ellipse cx="210.5" cy="248.9023" fill="#84BE84" rx="3" ry="3" style="stroke: #038048; stroke-width: 1.0;"/><text fill="#000000" font-family="sans-serif" font-size="11" font-weight="bold" lengthAdjust="spacingAndGlyphs" textLength="23" x="219.5" y="251.2104">add</text><text fill="#000000" font-family="sans-serif" font-size="11" lengthAdjust="spacingAndGlyphs" textLength="128" x="242.5" y="251.2104">(Number x, Number y)</text><rect fill="#D3D3D3" filter="url(#f1)" height="99.2188" style="stroke: #A80036; stroke-width: 1.5;" width="126" x="551" y="14.5"/><rect fill="#D3D3D3" height="32" style="stroke: #A80036; stroke-width: 1.5;" width="126" x="551" y="14.5"/><ellipse cx="575.9" cy="30.5" fill="#ADD1B2" rx="11" ry="11" style="stroke: #A80036; stroke-width: 1.0;"/><path d="M578.8688,36.1406 Q578.2906,36.4375 577.65,36.5859 Q577.0094,36.7344 576.3063,36.7344 Q573.8063,36.7344 572.4859,35.0859 Q571.1656,33.4375 571.1656,30.3125 Q571.1656,27.1875 572.4859,25.5313 Q573.8063,23.875 576.3063,23.875 Q577.0094,23.875 577.6578,24.0313 Q578.3063,24.1875 578.8688,24.4844 L578.8688,27.2031 Q578.2438,26.625 577.65,26.3516 Q577.0563,26.0781 576.4313,26.0781 Q575.0875,26.0781 574.4,27.1484 Q573.7125,28.2188 573.7125,30.3125 Q573.7125,32.4063 574.4,33.4766 Q575.0875,34.5469 576.4313,34.5469 Q577.0563,34.5469 577.65,34.2734 Q578.2438,34 578.8688,33.4219 L578.8688,36.1406 Z "/><text fill="#000000" font-family="sans-serif" font-size="12" lengthAdjust="spacingAndGlyphs" textLength="72" x="592.1" y="34.6543">BatchResult</text><line style="stroke: #A80036; stroke-width: 1.5;" x1="552" x2="676" y1="46.5" y2="46.5"/><text fill="#000000" font-family="sans-serif" font-size="11" lengthAdjust="spacingAndGlyphs" textLength="28" x="557" y="60.7104">int id</text><text fill="#000000" font-family="sans-serif" font-size="11" lengthAdjust="spacingAndGlyphs" textLength="64" x="557" y="73.5151">double loss</text><text fill="#000000" font-family="sans-serif" font-size="11" lengthAdjust="spacingAndGlyphs" textLength="101" x="557" y="86.3198">double validation;</text><text fill="#000000" font-family="sans-serif" font-size="11" lengthAdjust="spacingAndGlyphs" textLength="114" x="557" y="99.1245">double learningRate</text><line style="stroke: #A80036; stroke-width: 1.5;" x1="552" x2="676" y1="105.7188" y2="105.7188"/><rect fill="#D3D3D3" filter="url(#f1)" height="112.0234" style="stroke: #A80036; stroke-width: 1.5;" width="437" x="44.5" y="8"/><rect fill="#D3D3D3" height="32" style="stroke: #A80036; stroke-width: 1.5;" width="437" x="44.5" y="8"/><ellipse cx="223.75" cy="24" fill="#ADD1B2" rx="11" ry="11" style="stroke: #A80036; stroke-width: 1.0;"/><path d="M226.7188,29.6406 Q226.1406,29.9375 225.5,30.0859 Q224.8594,30.2344 224.1563,30.2344 Q221.6563,30.2344 220.3359,28.5859 Q219.0156,26.9375 219.0156,23.8125 Q219.0156,20.6875 220.3359,19.0313 Q221.6563,17.375 224.1563,17.375 Q224.8594,17.375 225.5078,17.5313 Q226.1563,17.6875 226.7188,17.9844 L226.7188,20.7031 Q226.0938,20.125 225.5,19.8516 Q224.9063,19.5781 224.2813,19.5781 Q222.9375,19.5781 222.25,20.6484 Q221.5625,21.7188 221.5625,23.8125 Q221.5625,25.9063 222.25,26.9766 Q222.9375,28.0469 224.2813,28.0469 Q224.9063,28.0469 225.5,27.7734 Q226.0938,27.5 226.7188,26.9219 L226.7188,29.6406 Z "/><text fill="#000000" font-family="sans-serif" font-size="12" lengthAdjust="spacingAndGlyphs" textLength="70" x="244.25" y="28.1543">Experiment</text><line style="stroke: #A80036; stroke-width: 1.5;" x1="45.5" x2="480.5" y1="40" y2="40"/><text fill="#000000" font-family="sans-serif" font-size="11" lengthAdjust="spacingAndGlyphs" textLength="149" x="50.5" y="54.2104">int epochs, int activations;</text><text fill="#000000" font-family="sans-serif" font-size="11" lengthAdjust="spacingAndGlyphs" textLength="115" x="50.5" y="67.0151">InputReader reader;</text><line style="stroke: #A80036; stroke-width: 1.5;" x1="45.5" x2="480.5" y1="73.6094" y2="73.6094"/><ellipse cx="55.5" cy="85.5117" fill="#84BE84" rx="3" ry="3" style="stroke: #038048; stroke-width: 1.0;"/><text fill="#000000" font-family="sans-serif" font-size="11" font-weight="bold" lengthAdjust="spacingAndGlyphs" textLength="67" x="64.5" y="87.8198">trainModel</text><text fill="#000000" font-family="sans-serif" font-size="11" lengthAdjust="spacingAndGlyphs" textLength="317" x="131.5" y="87.8198">(Optimizer o, InputReader r, int epochs, int activations )</text><ellipse cx="55.5" cy="98.3164" fill="#84BE84" rx="3" ry="3" style="stroke: #038048; stroke-width: 1.0;"/><text fill="#000000" font-family="sans-serif" font-size="11" font-weight="bold" lengthAdjust="spacingAndGlyphs" textLength="105" x="64.5" y="100.6245">onBatchFinished</text><text fill="#000000" font-family="sans-serif" font-size="11" lengthAdjust="spacingAndGlyphs" textLength="306" x="169.5" y="100.6245">(Optimizer sgd, TensorPair batch, BatchResult result);</text><ellipse cx="55.5" cy="111.1211" fill="#84BE84" rx="3" ry="3" style="stroke: #038048; stroke-width: 1.0;"/><text fill="#000000" font-family="sans-serif" font-size="11" font-weight="bold" lengthAdjust="spacingAndGlyphs" textLength="109" x="64.5" y="113.4292">onEpochFinished</text><text fill="#000000" font-family="sans-serif" font-size="11" lengthAdjust="spacingAndGlyphs" textLength="151" x="173.5" y="113.4292">(Optimizer sgd, int epoch);</text><rect fill="#D3D3D3" filter="url(#f1)" height="48" style="stroke: #A80036; stroke-width: 1.5;" width="124" x="6" y="203.5"/><rect fill="#D3D3D3" height="32" style="stroke: #A80036; stroke-width: 1.5;" width="124" x="6" y="203.5"/><ellipse cx="21" cy="219.5" fill="#ADD1B2" rx="11" ry="11" style="stroke: #A80036; stroke-width: 1.0;"/><path d="M23.9688,225.1406 Q23.3906,225.4375 22.75,225.5859 Q22.1094,225.7344 21.4063,225.7344 Q18.9063,225.7344 17.5859,224.0859 Q16.2656,222.4375 16.2656,219.3125 Q16.2656,216.1875 17.5859,214.5313 Q18.9063,212.875 21.4063,212.875 Q22.1094,212.875 22.7578,213.0313 Q23.4063,213.1875 23.9688,213.4844 L23.9688,216.2031 Q23.3438,215.625 22.75,215.3516 Q22.1563,215.0781 21.5313,215.0781 Q20.1875,215.0781 19.5,216.1484 Q18.8125,217.2188 18.8125,219.3125 Q18.8125,221.4063 19.5,222.4766 Q20.1875,223.5469 21.5313,223.5469 Q22.1563,223.5469 22.75,223.2734 Q23.3438,223 23.9688,222.4219 L23.9688,225.1406 Z "/><text fill="#000000" font-family="sans-serif" font-size="12" lengthAdjust="spacingAndGlyphs" textLength="92" x="35" y="223.6543">GUIExperiment</text><line style="stroke: #A80036; stroke-width: 1.5;" x1="7" x2="129" y1="235.5" y2="235.5"/><line style="stroke: #A80036; stroke-width: 1.5;" x1="7" x2="129" y1="243.5" y2="243.5"/><rect fill="#FEFECE" filter="url(#f1)" height="48" style="stroke: #A80036; stroke-width: 1.5;" width="90" x="412" y="203.5"/><ellipse cx="427" cy="219.5" fill="#ADD1B2" rx="11" ry="11" style="stroke: #A80036; stroke-width: 1.0;"/><path d="M429.9688,225.1406 Q429.3906,225.4375 428.75,225.5859 Q428.1094,225.7344 427.4063,225.7344 Q424.9063,225.7344 423.5859,224.0859 Q422.2656,222.4375 422.2656,219.3125 Q422.2656,216.1875 423.5859,214.5313 Q424.9063,212.875 427.4063,212.875 Q428.1094,212.875 428.7578,213.0313 Q429.4063,213.1875 429.9688,213.4844 L429.9688,216.2031 Q429.3438,215.625 428.75,215.3516 Q428.1563,215.0781 427.5313,215.0781 Q426.1875,215.0781 425.5,216.1484 Q424.8125,217.2188 424.8125,219.3125 Q424.8125,221.4063 425.5,222.4766 Q426.1875,223.5469 427.5313,223.5469 Q428.1563,223.5469 428.75,223.2734 Q429.3438,223 429.9688,222.4219 L429.9688,225.1406 Z "/><text fill="#000000" font-family="sans-serif" font-size="12" lengthAdjust="spacingAndGlyphs" textLength="58" x="441" y="223.6543">Optimizer</text><line style="stroke: #A80036; stroke-width: 1.5;" x1="413" x2="501" y1="235.5" y2="235.5"/><line style="stroke: #A80036; stroke-width: 1.5;" x1="413" x2="501" y1="243.5" y2="243.5"/><path d="M329.4924,120.0387 C361.56,147.0648 398.5803,178.2648 424.4413,200.06 " fill="none" style="stroke: #A80036; stroke-width: 1.0; stroke-dasharray: 7.0,7.0;"/><polygon fill="#A80036" points="428.4935,203.4752,424.1895,194.6166,424.6703,200.253,419.0339,200.7337,428.4935,203.4752" style="stroke: #A80036; stroke-width: 1.0;"/><text fill="#000000" font-family="sans-serif" font-size="13" lengthAdjust="spacingAndGlyphs" textLength="30" x="385" y="163.0669">uses</text><path d="M481.8021,64 C504.671,64 526.4936,64 545.5808,64 " fill="none" style="stroke: #A80036; stroke-width: 1.0; stroke-dasharray: 7.0,7.0;"/><polygon fill="#A80036" points="550.8904,64,541.8904,60,545.8904,64,541.8904,68,550.8904,64" style="stroke: #A80036; stroke-width: 1.0;"/><text fill="#000000" font-family="sans-serif" font-size="13" lengthAdjust="spacingAndGlyphs" textLength="30" x="501.25" y="57.0669">uses</text><path d="M180.74,132.9719 C150.7817,158.0907 118.8551,184.8599 96.6534,203.4752 " fill="none" style="stroke: #A80036; stroke-width: 1.0;"/><polygon fill="none" points="176.3416,127.5247,196.1649,120.0387,185.3367,138.2527,176.3416,127.5247" style="stroke: #A80036; stroke-width: 1.0;"/><path d="M130.3047,227.5 C151.5951,227.5 172.8855,227.5 194.1759,227.5 " fill="none" style="stroke: #A80036; stroke-width: 1.0;"/><polygon fill="#A80036" points="199.2964,227.5,190.2964,223.5,194.2964,227.5,190.2964,231.5,199.2964,227.5" style="stroke: #A80036; stroke-width: 1.0;"/><text fill="#000000" font-family="sans-serif" font-size="13" lengthAdjust="spacingAndGlyphs" textLength="7" x="184.3727" y="223.9365">*</text></g></svg>