<?xml version="1.0" encoding="UTF-8" standalone="yes"?><svg xmlns="http://www.w3.org/2000/svg" xmlns:xlink="http://www.w3.org/1999/xlink" height="655px" style="width:1302px;height:655px;" version="1.1" viewBox="0 0 1302 655" width="1302px"><defs><filter height="300%" id="f1" width="300%" x="-1" y="-1"><feGaussianBlur result="blurOut" stdDeviation="2.0"/><feColorMatrix in="blurOut" result="blurOut2" type="matrix" values="0 0 0 0 0 0 0 0 0 0 0 0 0 0 0 0 0 0 .4 0"/><feOffset dx="4.0" dy="4.0" in="blurOut2" result="blurOut3"/><feBlend in="SourceGraphic" in2="blurOut3" mode="normal"/></filter></defs><g><rect fill="#FFC0CB" filter="url(#f1)" height="48" style="stroke: #A80036; stroke-width: 1.5;" width="98" x="122" y="219.5"/><rect fill="#FFC0CB" height="32" style="stroke: #A80036; stroke-width: 1.5;" width="98" x="122" y="219.5"/><ellipse cx="137" cy="235.5" fill="#ADD1B2" rx="11" ry="11" style="stroke: #A80036; stroke-width: 1.0;"/><path d="M139.9688,241.1406 Q139.3906,241.4375 138.75,241.5859 Q138.1094,241.7344 137.4063,241.7344 Q134.9063,241.7344 133.5859,240.0859 Q132.2656,238.4375 132.2656,235.3125 Q132.2656,232.1875 133.5859,230.5313 Q134.9063,228.875 137.4063,228.875 Q138.1094,228.875 138.7578,229.0313 Q139.4063,229.1875 139.9688,229.4844 L139.9688,232.2031 Q139.3438,231.625 138.75,231.3516 Q138.1563,231.0781 137.5313,231.0781 Q136.1875,231.0781 135.5,232.1484 Q134.8125,233.2188 134.8125,235.3125 Q134.8125,237.4063 135.5,238.4766 Q136.1875,239.5469 137.5313,239.5469 Q138.1563,239.5469 138.75,239.2734 Q139.3438,239 139.9688,238.4219 L139.9688,241.1406 Z "/><text fill="#000000" font-family="sans-serif" font-size="12" lengthAdjust="spacingAndGlyphs" textLength="66" x="151" y="239.6543">InputLayer</text><line style="stroke: #A80036; stroke-width: 1.5;" x1="123" x2="219" y1="251.5" y2="251.5"/><line style="stroke: #A80036; stroke-width: 1.5;" x1="123" x2="219" y1="259.5" y2="259.5"/><rect fill="#ADD8E6" filter="url(#f1)" height="48" style="stroke: #A80036; stroke-width: 1.5;" width="110" x="6" y="46.5"/><rect fill="#ADD8E6" height="32" style="stroke: #A80036; stroke-width: 1.5;" width="110" x="6" y="46.5"/><ellipse cx="21" cy="62.5" fill="#ADD1B2" rx="11" ry="11" style="stroke: #A80036; stroke-width: 1.0;"/><path d="M23.9688,68.1406 Q23.3906,68.4375 22.75,68.5859 Q22.1094,68.7344 21.4063,68.7344 Q18.9063,68.7344 17.5859,67.0859 Q16.2656,65.4375 16.2656,62.3125 Q16.2656,59.1875 17.5859,57.5313 Q18.9063,55.875 21.4063,55.875 Q22.1094,55.875 22.7578,56.0313 Q23.4063,56.1875 23.9688,56.4844 L23.9688,59.2031 Q23.3438,58.625 22.75,58.3516 Q22.1563,58.0781 21.5313,58.0781 Q20.1875,58.0781 19.5,59.1484 Q18.8125,60.2188 18.8125,62.3125 Q18.8125,64.4063 19.5,65.4766 Q20.1875,66.5469 21.5313,66.5469 Q22.1563,66.5469 22.75,66.2734 Q23.3438,66 23.9688,65.4219 L23.9688,68.1406 Z "/><text fill="#000000" font-family="sans-serif" font-size="12" lengthAdjust="spacingAndGlyphs" textLength="78" x="35" y="66.6543">TensorShape</text><line style="stroke: #A80036; stroke-width: 1.5;" x1="7" x2="115" y1="78.5" y2="78.5"/><line style="stroke: #A80036; stroke-width: 1.5;" x1="7" x2="115" y1="86.5" y2="86.5"/><rect fill="#FFC0CB" filter="url(#f1)" height="124.8281" style="stroke: #A80036; stroke-width: 1.5;" width="522" x="235" y="8"/><rect fill="#FFC0CB" height="32" style="stroke: #A80036; stroke-width: 1.5;" width="522" x="235" y="8"/><ellipse cx="475.25" cy="24" fill="#ADD1B2" rx="11" ry="11" style="stroke: #A80036; stroke-width: 1.0;"/><path d="M478.2188,29.6406 Q477.6406,29.9375 477,30.0859 Q476.3594,30.2344 475.6563,30.2344 Q473.1563,30.2344 471.8359,28.5859 Q470.5156,26.9375 470.5156,23.8125 Q470.5156,20.6875 471.8359,19.0313 Q473.1563,17.375 475.6563,17.375 Q476.3594,17.375 477.0078,17.5313 Q477.6563,17.6875 478.2188,17.9844 L478.2188,20.7031 Q477.5938,20.125 477,19.8516 Q476.4063,19.5781 475.7813,19.5781 Q474.4375,19.5781 473.75,20.6484 Q473.0625,21.7188 473.0625,23.8125 Q473.0625,25.9063 473.75,26.9766 Q474.4375,28.0469 475.7813,28.0469 Q476.4063,28.0469 477,27.7734 Q477.5938,27.5 478.2188,26.9219 L478.2188,29.6406 Z "/><text fill="#000000" font-family="sans-serif" font-size="12" lengthAdjust="spacingAndGlyphs" textLength="33" x="495.75" y="28.1543">Layer</text><line style="stroke: #A80036; stroke-width: 1.5;" x1="236" x2="756" y1="40" y2="40"/><text fill="#000000" font-family="sans-serif" font-size="11" lengthAdjust="spacingAndGlyphs" textLength="69" x="241" y="54.2104">String name</text><text fill="#000000" font-family="sans-serif" font-size="11" lengthAdjust="spacingAndGlyphs" textLength="135" x="241" y="67.0151">boolean inTrainingMode</text><line style="stroke: #A80036; stroke-width: 1.5;" x1="236" x2="756" y1="73.6094" y2="73.6094"/><ellipse cx="246" cy="85.5117" fill="#84BE84" rx="3" ry="3" style="stroke: #038048; stroke-width: 1.0;"/><text fill="#000000" font-family="sans-serif" font-size="11" font-weight="bold" lengthAdjust="spacingAndGlyphs" textLength="33" x="255" y="87.8198">Layer</text><text fill="#000000" font-family="sans-serif" font-size="11" lengthAdjust="spacingAndGlyphs" textLength="277" x="288" y="87.8198">(String name, TensorShape in, TensorShape out)</text><ellipse cx="246" cy="98.3164" fill="#84BE84" rx="3" ry="3" style="stroke: #038048; stroke-width: 1.0;"/><text fill="#000000" font-family="sans-serif" font-size="11" lengthAdjust="spacingAndGlyphs" textLength="89" x="255" y="100.6245">abstract Tensor</text><text fill="#000000" font-family="sans-serif" font-size="11" font-weight="bold" lengthAdjust="spacingAndGlyphs" textLength="58" x="348" y="100.6245">inference</text><text fill="#000000" font-family="sans-serif" font-size="11" lengthAdjust="spacingAndGlyphs" textLength="47" x="406" y="100.6245">(Tensor)</text><ellipse cx="246" cy="111.1211" fill="#84BE84" rx="3" ry="3" style="stroke: #038048; stroke-width: 1.0;"/><text fill="#000000" font-family="sans-serif" font-size="11" lengthAdjust="spacingAndGlyphs" textLength="51" x="255" y="113.4292">INDArray</text><text fill="#000000" font-family="sans-serif" font-size="11" font-weight="bold" lengthAdjust="spacingAndGlyphs" textLength="105" x="310" y="113.4292">backpropagation</text><text fill="#000000" font-family="sans-serif" font-size="11" lengthAdjust="spacingAndGlyphs" textLength="103" x="415" y="113.4292">( INDArray input );</text><ellipse cx="246" cy="123.9258" fill="#84BE84" rx="3" ry="3" style="stroke: #038048; stroke-width: 1.0;"/><text fill="#000000" font-family="sans-serif" font-size="11" lengthAdjust="spacingAndGlyphs" textLength="24" x="255" y="126.2339">void</text><text fill="#000000" font-family="sans-serif" font-size="11" font-weight="bold" lengthAdjust="spacingAndGlyphs" textLength="76" x="283" y="126.2339">updateLayer</text><text fill="#000000" font-family="sans-serif" font-size="11" lengthAdjust="spacingAndGlyphs" textLength="392" x="359" y="126.2339">(Supplier&lt;UpdateFunction&gt; s,  float learningRate, int batchSize  ) { }</text><rect fill="#FFC0CB" filter="url(#f1)" height="48" style="stroke: #A80036; stroke-width: 1.5;" width="108" x="1064" y="219.5"/><rect fill="#FFC0CB" height="32" style="stroke: #A80036; stroke-width: 1.5;" width="108" x="1064" y="219.5"/><ellipse cx="1079" cy="235.5" fill="#B4A7E5" rx="11" ry="11" style="stroke: #A80036; stroke-width: 1.0;"/><path d="M1075.4219,231.2656 L1075.4219,229.1094 L1082.8125,229.1094 L1082.8125,231.2656 L1080.3438,231.2656 L1080.3438,239.3438 L1082.8125,239.3438 L1082.8125,241.5 L1075.4219,241.5 L1075.4219,239.3438 L1077.8906,239.3438 L1077.8906,231.2656 L1075.4219,231.2656 Z "/><text fill="#000000" font-family="sans-serif" font-size="12" font-style="italic" lengthAdjust="spacingAndGlyphs" textLength="76" x="1093" y="239.6543">OutputLayer</text><line style="stroke: #A80036; stroke-width: 1.5;" x1="1065" x2="1171" y1="251.5" y2="251.5"/><line style="stroke: #A80036; stroke-width: 1.5;" x1="1065" x2="1171" y1="259.5" y2="259.5"/><rect fill="#FFC0CB" filter="url(#f1)" height="48" style="stroke: #A80036; stroke-width: 1.5;" width="116" x="892" y="354"/><rect fill="#FFC0CB" height="32" style="stroke: #A80036; stroke-width: 1.5;" width="116" x="892" y="354"/><ellipse cx="907" cy="370" fill="#ADD1B2" rx="11" ry="11" style="stroke: #A80036; stroke-width: 1.0;"/><path d="M909.9688,375.6406 Q909.3906,375.9375 908.75,376.0859 Q908.1094,376.2344 907.4063,376.2344 Q904.9063,376.2344 903.5859,374.5859 Q902.2656,372.9375 902.2656,369.8125 Q902.2656,366.6875 903.5859,365.0313 Q904.9063,363.375 907.4063,363.375 Q908.1094,363.375 908.7578,363.5313 Q909.4063,363.6875 909.9688,363.9844 L909.9688,366.7031 Q909.3438,366.125 908.75,365.8516 Q908.1563,365.5781 907.5313,365.5781 Q906.1875,365.5781 905.5,366.6484 Q904.8125,367.7188 904.8125,369.8125 Q904.8125,371.9063 905.5,372.9766 Q906.1875,374.0469 907.5313,374.0469 Q908.1563,374.0469 908.75,373.7734 Q909.3438,373.5 909.9688,372.9219 L909.9688,375.6406 Z "/><text fill="#000000" font-family="sans-serif" font-size="12" lengthAdjust="spacingAndGlyphs" textLength="84" x="921" y="374.1543">SimpleOutput</text><line style="stroke: #A80036; stroke-width: 1.5;" x1="893" x2="1007" y1="386" y2="386"/><line style="stroke: #A80036; stroke-width: 1.5;" x1="893" x2="1007" y1="394" y2="394"/><rect fill="#FFC0CB" filter="url(#f1)" height="48" style="stroke: #A80036; stroke-width: 1.5;" width="125" x="1043.5" y="354"/><rect fill="#FFC0CB" height="32" style="stroke: #A80036; stroke-width: 1.5;" width="125" x="1043.5" y="354"/><ellipse cx="1058.5" cy="370" fill="#ADD1B2" rx="11" ry="11" style="stroke: #A80036; stroke-width: 1.0;"/><path d="M1061.4688,375.6406 Q1060.8906,375.9375 1060.25,376.0859 Q1059.6094,376.2344 1058.9063,376.2344 Q1056.4063,376.2344 1055.0859,374.5859 Q1053.7656,372.9375 1053.7656,369.8125 Q1053.7656,366.6875 1055.0859,365.0313 Q1056.4063,363.375 1058.9063,363.375 Q1059.6094,363.375 1060.2578,363.5313 Q1060.9063,363.6875 1061.4688,363.9844 L1061.4688,366.7031 Q1060.8438,366.125 1060.25,365.8516 Q1059.6563,365.5781 1059.0313,365.5781 Q1057.6875,365.5781 1057,366.6484 Q1056.3125,367.7188 1056.3125,369.8125 Q1056.3125,371.9063 1057,372.9766 Q1057.6875,374.0469 1059.0313,374.0469 Q1059.6563,374.0469 1060.25,373.7734 Q1060.8438,373.5 1061.4688,372.9219 L1061.4688,375.6406 Z "/><text fill="#000000" font-family="sans-serif" font-size="12" lengthAdjust="spacingAndGlyphs" textLength="93" x="1072.5" y="374.1543">OutputSoftmax</text><line style="stroke: #A80036; stroke-width: 1.5;" x1="1044.5" x2="1167.5" y1="386" y2="386"/><line style="stroke: #A80036; stroke-width: 1.5;" x1="1044.5" x2="1167.5" y1="394" y2="394"/><rect fill="#F5DEB3" filter="url(#f1)" height="73.6094" style="stroke: #A80036; stroke-width: 1.5;" width="533" x="760.5" y="463"/><rect fill="#F5DEB3" height="32" style="stroke: #A80036; stroke-width: 1.5;" width="533" x="760.5" y="463"/><ellipse cx="1009.75" cy="479" fill="#B4A7E5" rx="11" ry="11" style="stroke: #A80036; stroke-width: 1.0;"/><path d="M1006.1719,474.7656 L1006.1719,472.6094 L1013.5625,472.6094 L1013.5625,474.7656 L1011.0938,474.7656 L1011.0938,482.8438 L1013.5625,482.8438 L1013.5625,485 L1006.1719,485 L1006.1719,482.8438 L1008.6406,482.8438 L1008.6406,474.7656 L1006.1719,474.7656 Z "/><text fill="#000000" font-family="sans-serif" font-size="12" font-style="italic" lengthAdjust="spacingAndGlyphs" textLength="26" x="1030.25" y="483.1543">Loss</text><line style="stroke: #A80036; stroke-width: 1.5;" x1="761.5" x2="1292.5" y1="495" y2="495"/><line style="stroke: #A80036; stroke-width: 1.5;" x1="761.5" x2="1292.5" y1="503" y2="503"/><ellipse cx="771.5" cy="514.9023" fill="#84BE84" rx="3" ry="3" style="stroke: #038048; stroke-width: 1.0;"/><text fill="#000000" font-family="sans-serif" font-size="11" lengthAdjust="spacingAndGlyphs" textLength="38" x="780.5" y="517.2104">double</text><text fill="#000000" font-family="sans-serif" font-size="11" font-weight="bold" lengthAdjust="spacingAndGlyphs" textLength="88" x="822.5" y="517.2104">calculate_loss</text><text fill="#000000" font-family="sans-serif" font-size="11" lengthAdjust="spacingAndGlyphs" textLength="345" x="910.5" y="517.2104">( INDArray labels, INDArray preoutput, Activation activation);</text><ellipse cx="771.5" cy="527.707" fill="#84BE84" rx="3" ry="3" style="stroke: #038048; stroke-width: 1.0;"/><text fill="#000000" font-family="sans-serif" font-size="11" lengthAdjust="spacingAndGlyphs" textLength="51" x="780.5" y="530.0151">INDArray</text><text fill="#000000" font-family="sans-serif" font-size="11" font-weight="bold" lengthAdjust="spacingAndGlyphs" textLength="107" x="835.5" y="530.0151">computeGradient</text><text fill="#000000" font-family="sans-serif" font-size="11" lengthAdjust="spacingAndGlyphs" textLength="345" x="942.5" y="530.0151">( INDArray labels, INDArray preoutput, Activation activation);</text><rect fill="#F5DEB3" filter="url(#f1)" height="48" style="stroke: #A80036; stroke-width: 1.5;" width="47" x="915.5" y="598"/><rect fill="#F5DEB3" height="32" style="stroke: #A80036; stroke-width: 1.5;" width="47" x="915.5" y="598"/><ellipse cx="930.5" cy="614" fill="#ADD1B2" rx="11" ry="11" style="stroke: #A80036; stroke-width: 1.0;"/><path d="M933.4688,619.6406 Q932.8906,619.9375 932.25,620.0859 Q931.6094,620.2344 930.9063,620.2344 Q928.4063,620.2344 927.0859,618.5859 Q925.7656,616.9375 925.7656,613.8125 Q925.7656,610.6875 927.0859,609.0313 Q928.4063,607.375 930.9063,607.375 Q931.6094,607.375 932.2578,607.5313 Q932.9063,607.6875 933.4688,607.9844 L933.4688,610.7031 Q932.8438,610.125 932.25,609.8516 Q931.6563,609.5781 931.0313,609.5781 Q929.6875,609.5781 929,610.6484 Q928.3125,611.7188 928.3125,613.8125 Q928.3125,615.9063 929,616.9766 Q929.6875,618.0469 931.0313,618.0469 Q931.6563,618.0469 932.25,617.7734 Q932.8438,617.5 933.4688,616.9219 L933.4688,619.6406 Z "/><text fill="#000000" font-family="sans-serif" font-size="12" lengthAdjust="spacingAndGlyphs" textLength="15" x="944.5" y="618.1543">L1</text><line style="stroke: #A80036; stroke-width: 1.5;" x1="916.5" x2="961.5" y1="630" y2="630"/><line style="stroke: #A80036; stroke-width: 1.5;" x1="916.5" x2="961.5" y1="638" y2="638"/><rect fill="#F5DEB3" filter="url(#f1)" height="48" style="stroke: #A80036; stroke-width: 1.5;" width="58" x="998" y="598"/><rect fill="#F5DEB3" height="32" style="stroke: #A80036; stroke-width: 1.5;" width="58" x="998" y="598"/><ellipse cx="1013" cy="614" fill="#ADD1B2" rx="11" ry="11" style="stroke: #A80036; stroke-width: 1.0;"/><path d="M1015.9688,619.6406 Q1015.3906,619.9375 1014.75,620.0859 Q1014.1094,620.2344 1013.4063,620.2344 Q1010.9063,620.2344 1009.5859,618.5859 Q1008.2656,616.9375 1008.2656,613.8125 Q1008.2656,610.6875 1009.5859,609.0313 Q1010.9063,607.375 1013.4063,607.375 Q1014.1094,607.375 1014.7578,607.5313 Q1015.4063,607.6875 1015.9688,607.9844 L1015.9688,610.7031 Q1015.3438,610.125 1014.75,609.8516 Q1014.1563,609.5781 1013.5313,609.5781 Q1012.1875,609.5781 1011.5,610.6484 Q1010.8125,611.7188 1010.8125,613.8125 Q1010.8125,615.9063 1011.5,616.9766 Q1012.1875,618.0469 1013.5313,618.0469 Q1014.1563,618.0469 1014.75,617.7734 Q1015.3438,617.5 1015.9688,616.9219 L1015.9688,619.6406 Z "/><text fill="#000000" font-family="sans-serif" font-size="12" lengthAdjust="spacingAndGlyphs" textLength="26" x="1027" y="618.1543">MSE</text><line style="stroke: #A80036; stroke-width: 1.5;" x1="999" x2="1055" y1="630" y2="630"/><line style="stroke: #A80036; stroke-width: 1.5;" x1="999" x2="1055" y1="638" y2="638"/><rect fill="#F5DEB3" filter="url(#f1)" height="48" style="stroke: #A80036; stroke-width: 1.5;" width="112" x="1091" y="598"/><rect fill="#F5DEB3" height="32" style="stroke: #A80036; stroke-width: 1.5;" width="112" x="1091" y="598"/><ellipse cx="1106" cy="614" fill="#ADD1B2" rx="11" ry="11" style="stroke: #A80036; stroke-width: 1.0;"/><path d="M1108.9688,619.6406 Q1108.3906,619.9375 1107.75,620.0859 Q1107.1094,620.2344 1106.4063,620.2344 Q1103.9063,620.2344 1102.5859,618.5859 Q1101.2656,616.9375 1101.2656,613.8125 Q1101.2656,610.6875 1102.5859,609.0313 Q1103.9063,607.375 1106.4063,607.375 Q1107.1094,607.375 1107.7578,607.5313 Q1108.4063,607.6875 1108.9688,607.9844 L1108.9688,610.7031 Q1108.3438,610.125 1107.75,609.8516 Q1107.1563,609.5781 1106.5313,609.5781 Q1105.1875,609.5781 1104.5,610.6484 Q1103.8125,611.7188 1103.8125,613.8125 Q1103.8125,615.9063 1104.5,616.9766 Q1105.1875,618.0469 1106.5313,618.0469 Q1107.1563,618.0469 1107.75,617.7734 Q1108.3438,617.5 1108.9688,616.9219 L1108.9688,619.6406 Z "/><text fill="#000000" font-family="sans-serif" font-size="12" lengthAdjust="spacingAndGlyphs" textLength="80" x="1120" y="618.1543">CrossEntropy</text><line style="stroke: #A80036; stroke-width: 1.5;" x1="1092" x2="1202" y1="630" y2="630"/><line style="stroke: #A80036; stroke-width: 1.5;" x1="1092" x2="1202" y1="638" y2="638"/><rect fill="#FFC0CB" filter="url(#f1)" height="48" style="stroke: #A80036; stroke-width: 1.5;" width="74" x="255" y="219.5"/><rect fill="#FFC0CB" height="32" style="stroke: #A80036; stroke-width: 1.5;" width="74" x="255" y="219.5"/><ellipse cx="270" cy="235.5" fill="#ADD1B2" rx="11" ry="11" style="stroke: #A80036; stroke-width: 1.0;"/><path d="M272.9688,241.1406 Q272.3906,241.4375 271.75,241.5859 Q271.1094,241.7344 270.4063,241.7344 Q267.9063,241.7344 266.5859,240.0859 Q265.2656,238.4375 265.2656,235.3125 Q265.2656,232.1875 266.5859,230.5313 Q267.9063,228.875 270.4063,228.875 Q271.1094,228.875 271.7578,229.0313 Q272.4063,229.1875 272.9688,229.4844 L272.9688,232.2031 Q272.3438,231.625 271.75,231.3516 Q271.1563,231.0781 270.5313,231.0781 Q269.1875,231.0781 268.5,232.1484 Q267.8125,233.2188 267.8125,235.3125 Q267.8125,237.4063 268.5,238.4766 Q269.1875,239.5469 270.5313,239.5469 Q271.1563,239.5469 271.75,239.2734 Q272.3438,239 272.9688,238.4219 L272.9688,241.1406 Z "/><text fill="#000000" font-family="sans-serif" font-size="12" lengthAdjust="spacingAndGlyphs" textLength="42" x="284" y="239.6543">Flatten</text><line style="stroke: #A80036; stroke-width: 1.5;" x1="256" x2="328" y1="251.5" y2="251.5"/><line style="stroke: #A80036; stroke-width: 1.5;" x1="256" x2="328" y1="259.5" y2="259.5"/><rect fill="#FFC0CB" filter="url(#f1)" height="48" style="stroke: #A80036; stroke-width: 1.5;" width="120" x="364" y="219.5"/><rect fill="#FFC0CB" height="32" style="stroke: #A80036; stroke-width: 1.5;" width="120" x="364" y="219.5"/><ellipse cx="379" cy="235.5" fill="#ADD1B2" rx="11" ry="11" style="stroke: #A80036; stroke-width: 1.0;"/><path d="M381.9688,241.1406 Q381.3906,241.4375 380.75,241.5859 Q380.1094,241.7344 379.4063,241.7344 Q376.9063,241.7344 375.5859,240.0859 Q374.2656,238.4375 374.2656,235.3125 Q374.2656,232.1875 375.5859,230.5313 Q376.9063,228.875 379.4063,228.875 Q380.1094,228.875 380.7578,229.0313 Q381.4063,229.1875 381.9688,229.4844 L381.9688,232.2031 Q381.3438,231.625 380.75,231.3516 Q380.1563,231.0781 379.5313,231.0781 Q378.1875,231.0781 377.5,232.1484 Q376.8125,233.2188 376.8125,235.3125 Q376.8125,237.4063 377.5,238.4766 Q378.1875,239.5469 379.5313,239.5469 Q380.1563,239.5469 380.75,239.2734 Q381.3438,239 381.9688,238.4219 L381.9688,241.1406 Z "/><text fill="#000000" font-family="sans-serif" font-size="12" lengthAdjust="spacingAndGlyphs" textLength="88" x="393" y="239.6543">Convolution2D</text><line style="stroke: #A80036; stroke-width: 1.5;" x1="365" x2="483" y1="251.5" y2="251.5"/><line style="stroke: #A80036; stroke-width: 1.5;" x1="365" x2="483" y1="259.5" y2="259.5"/><rect fill="#FFC0CB" filter="url(#f1)" height="48" style="stroke: #A80036; stroke-width: 1.5;" width="97" x="519.5" y="219.5"/><rect fill="#FFC0CB" height="32" style="stroke: #A80036; stroke-width: 1.5;" width="97" x="519.5" y="219.5"/><ellipse cx="534.5" cy="235.5" fill="#ADD1B2" rx="11" ry="11" style="stroke: #A80036; stroke-width: 1.0;"/><path d="M537.4688,241.1406 Q536.8906,241.4375 536.25,241.5859 Q535.6094,241.7344 534.9063,241.7344 Q532.4063,241.7344 531.0859,240.0859 Q529.7656,238.4375 529.7656,235.3125 Q529.7656,232.1875 531.0859,230.5313 Q532.4063,228.875 534.9063,228.875 Q535.6094,228.875 536.2578,229.0313 Q536.9063,229.1875 537.4688,229.4844 L537.4688,232.2031 Q536.8438,231.625 536.25,231.3516 Q535.6563,231.0781 535.0313,231.0781 Q533.6875,231.0781 533,232.1484 Q532.3125,233.2188 532.3125,235.3125 Q532.3125,237.4063 533,238.4766 Q533.6875,239.5469 535.0313,239.5469 Q535.6563,239.5469 536.25,239.2734 Q536.8438,239 537.4688,238.4219 L537.4688,241.1406 Z "/><text fill="#000000" font-family="sans-serif" font-size="12" lengthAdjust="spacingAndGlyphs" textLength="65" x="548.5" y="239.6543">PoolMax2D</text><line style="stroke: #A80036; stroke-width: 1.5;" x1="520.5" x2="615.5" y1="251.5" y2="251.5"/><line style="stroke: #A80036; stroke-width: 1.5;" x1="520.5" x2="615.5" y1="259.5" y2="259.5"/><rect fill="#FFC0CB" filter="url(#f1)" height="48" style="stroke: #A80036; stroke-width: 1.5;" width="116" x="652" y="219.5"/><rect fill="#FFC0CB" height="32" style="stroke: #A80036; stroke-width: 1.5;" width="116" x="652" y="219.5"/><ellipse cx="667" cy="235.5" fill="#ADD1B2" rx="11" ry="11" style="stroke: #A80036; stroke-width: 1.0;"/><path d="M669.9688,241.1406 Q669.3906,241.4375 668.75,241.5859 Q668.1094,241.7344 667.4063,241.7344 Q664.9063,241.7344 663.5859,240.0859 Q662.2656,238.4375 662.2656,235.3125 Q662.2656,232.1875 663.5859,230.5313 Q664.9063,228.875 667.4063,228.875 Q668.1094,228.875 668.7578,229.0313 Q669.4063,229.1875 669.9688,229.4844 L669.9688,232.2031 Q669.3438,231.625 668.75,231.3516 Q668.1563,231.0781 667.5313,231.0781 Q666.1875,231.0781 665.5,232.1484 Q664.8125,233.2188 664.8125,235.3125 Q664.8125,237.4063 665.5,238.4766 Q666.1875,239.5469 667.5313,239.5469 Q668.1563,239.5469 668.75,239.2734 Q669.3438,239 669.9688,238.4219 L669.9688,241.1406 Z "/><text fill="#000000" font-family="sans-serif" font-size="12" lengthAdjust="spacingAndGlyphs" textLength="84" x="681" y="239.6543">DropOutLayer</text><line style="stroke: #A80036; stroke-width: 1.5;" x1="653" x2="767" y1="251.5" y2="251.5"/><line style="stroke: #A80036; stroke-width: 1.5;" x1="653" x2="767" y1="259.5" y2="259.5"/><rect fill="#FFC0CB" filter="url(#f1)" height="99.2188" style="stroke: #A80036; stroke-width: 1.5;" width="225" x="803.5" y="194"/><rect fill="#FFC0CB" height="32" style="stroke: #A80036; stroke-width: 1.5;" width="225" x="803.5" y="194"/><ellipse cx="865.25" cy="210" fill="#ADD1B2" rx="11" ry="11" style="stroke: #A80036; stroke-width: 1.0;"/><path d="M868.2188,215.6406 Q867.6406,215.9375 867,216.0859 Q866.3594,216.2344 865.6563,216.2344 Q863.1563,216.2344 861.8359,214.5859 Q860.5156,212.9375 860.5156,209.8125 Q860.5156,206.6875 861.8359,205.0313 Q863.1563,203.375 865.6563,203.375 Q866.3594,203.375 867.0078,203.5313 Q867.6563,203.6875 868.2188,203.9844 L868.2188,206.7031 Q867.5938,206.125 867,205.8516 Q866.4063,205.5781 865.7813,205.5781 Q864.4375,205.5781 863.75,206.6484 Q863.0625,207.7188 863.0625,209.8125 Q863.0625,211.9063 863.75,212.9766 Q864.4375,214.0469 865.7813,214.0469 Q866.4063,214.0469 867,213.7734 Q867.5938,213.5 868.2188,212.9219 L868.2188,215.6406 Z "/><text fill="#000000" font-family="sans-serif" font-size="12" lengthAdjust="spacingAndGlyphs" textLength="93" x="885.75" y="214.1543">FullyConnected</text><line style="stroke: #A80036; stroke-width: 1.5;" x1="804.5" x2="1027.5" y1="226" y2="226"/><text fill="#000000" font-family="sans-serif" font-size="11" lengthAdjust="spacingAndGlyphs" textLength="106" x="809.5" y="240.2104">int inputs, outputs;</text><text fill="#000000" font-family="sans-serif" font-size="11" lengthAdjust="spacingAndGlyphs" textLength="133" x="809.5" y="253.0151">INDArray bias, weights;</text><text fill="#000000" font-family="sans-serif" font-size="11" lengthAdjust="spacingAndGlyphs" textLength="213" x="809.5" y="265.8198">INDArray biasUpdate, weightsUpdate;</text><text fill="#000000" font-family="sans-serif" font-size="11" lengthAdjust="spacingAndGlyphs" textLength="192" x="809.5" y="278.6245">INDArray lastInput, lastPreOutput;</text><line style="stroke: #A80036; stroke-width: 1.5;" x1="804.5" x2="1027.5" y1="285.2188" y2="285.2188"/><path d="M121.3229,87.7085 C126.9254,88.8394 132.5456,89.8032 138,90.5 C169.1827,94.4836 201.9939,96.1173 234.5778,96.1731 " fill="none" style="stroke: #A80036; stroke-width: 1.0;"/><polygon fill="#A80036" points="116.1879,86.6259,124.169,92.3967,121.0803,87.6575,125.8195,84.5688,116.1879,86.6259" style="stroke: #A80036; stroke-width: 1.0;"/><text fill="#000000" font-family="sans-serif" font-size="13" lengthAdjust="spacingAndGlyphs" textLength="73" x="139" y="86.5669">inputShape</text><path d="M121.3628,70.5 C152.2593,70.5 192.23,70.5 234.5154,70.5 " fill="none" style="stroke: #A80036; stroke-width: 1.0;"/><polygon fill="#A80036" points="116.0931,70.5,125.0931,74.5,121.0931,70.5,125.0931,66.5,116.0931,70.5" style="stroke: #A80036; stroke-width: 1.0;"/><text fill="#000000" font-family="sans-serif" font-size="13" lengthAdjust="spacingAndGlyphs" textLength="82" x="134.5" y="63.5669">outputShape</text><path d="M333.8195,141.7385 C301.1342,157.7807 267.4757,175.5566 237,194 C224.6238,201.4899 211.7399,210.7747 200.6755,219.2723 " fill="none" style="stroke: #A80036; stroke-width: 1.0;"/><polygon fill="none" points="330.7996,135.4234,351.8515,133.0113,336.8987,148.0251,330.7996,135.4234" style="stroke: #A80036; stroke-width: 1.0;"/><path d="M1072.1876,280.1772 C1042.8696,303.649 1005.6671,333.4332 980.0577,353.9359 " fill="none" style="stroke: #A80036; stroke-width: 1.0; stroke-dasharray: 7.0,7.0;"/><polygon fill="none" points="1067.9772,274.581,1087.965,267.5459,1076.727,285.51,1067.9772,274.581" style="stroke: #A80036; stroke-width: 1.0;"/><path d="M1114.0746,287.4971 C1112.1111,309.5042 1109.8097,335.2999 1108.1672,353.7088 " fill="none" style="stroke: #A80036; stroke-width: 1.0; stroke-dasharray: 7.0,7.0;"/><polygon fill="none" points="1107.1049,286.8447,1115.8546,267.5459,1121.0495,288.0889,1107.1049,286.8447" style="stroke: #A80036; stroke-width: 1.0;"/><path d="M965.2127,402.1033 C975.3138,418.1076 988.8406,439.5396 1000.6623,458.2702 " fill="none" style="stroke: #A80036; stroke-width: 1.0;"/><polygon fill="#A80036" points="1003.628,462.9691,1002.207,453.2233,1000.9593,458.7409,995.4418,457.4932,1003.628,462.9691" style="stroke: #A80036; stroke-width: 1.0;"/><path d="M1090.3921,402.1033 C1079.9409,418.2432 1065.9151,439.9033 1053.7138,458.7458 " fill="none" style="stroke: #A80036; stroke-width: 1.0;"/><polygon fill="#A80036" points="1050.9791,462.9691,1059.2285,457.5889,1053.6968,458.7722,1052.5135,453.2405,1050.9791,462.9691" style="stroke: #A80036; stroke-width: 1.0;"/><path d="M988.3852,553.5342 C977.2776,568.9334 965.7052,584.9769 956.5571,597.6595 " fill="none" style="stroke: #A80036; stroke-width: 1.0; stroke-dasharray: 7.0,7.0;"/><polygon fill="none" points="982.7416,549.3925,1000.1189,537.2669,994.096,557.5826,982.7416,549.3925" style="stroke: #A80036; stroke-width: 1.0;"/><path d="M1027,557.4774 C1027,571.6398 1027,586.0563 1027,597.6595 " fill="none" style="stroke: #A80036; stroke-width: 1.0; stroke-dasharray: 7.0,7.0;"/><polygon fill="none" points="1020.0001,557.267,1027,537.2669,1034.0001,557.2669,1020.0001,557.267" style="stroke: #A80036; stroke-width: 1.0;"/><path d="M1077.7267,551.5722 C1093.4543,567.5619 1110.053,584.4372 1123.0586,597.6595 " fill="none" style="stroke: #A80036; stroke-width: 1.0; stroke-dasharray: 7.0,7.0;"/><polygon fill="none" points="1072.6903,556.4342,1063.656,537.2669,1082.6713,546.6168,1072.6903,556.4342" style="stroke: #A80036; stroke-width: 1.0;"/><path d="M402.6123,146.0975 C383.7189,161.7526 364.1025,178.2703 346,194 C336.688,202.0914 326.68,211.1578 317.8403,219.2985 " fill="none" style="stroke: #A80036; stroke-width: 1.0;"/><polygon fill="none" points="398.3811,140.5136,418.2636,133.1865,407.2899,151.3133,398.3811,140.5136" style="stroke: #A80036; stroke-width: 1.0;"/><path d="M462.1032,151.9465 C451.9059,176.4484 441.4827,201.4929 434.1215,219.1802 " fill="none" style="stroke: #A80036; stroke-width: 1.0;"/><polygon fill="none" points="455.6552,149.2214,469.8027,133.4464,468.5805,154.6007,455.6552,149.2214" style="stroke: #A80036; stroke-width: 1.0;"/><path d="M529.8968,151.9465 C540.0941,176.4484 550.5173,201.4929 557.8785,219.1802 " fill="none" style="stroke: #A80036; stroke-width: 1.0;"/><polygon fill="none" points="523.4195,154.6007,522.1973,133.4464,536.3448,149.2214,523.4195,154.6007" style="stroke: #A80036; stroke-width: 1.0;"/><path d="M589.4015,146.0068 C622.0602,172.4085 656.4369,200.199 680.0942,219.3238 " fill="none" style="stroke: #A80036; stroke-width: 1.0;"/><polygon fill="none" points="584.7141,151.2188,573.5615,133.2016,593.5156,140.3314,584.7141,151.2188" style="stroke: #A80036; stroke-width: 1.0;"/><path d="M666.4594,140.713 C712.5468,159.6966 761.2702,179.7661 803.3126,197.0835 " fill="none" style="stroke: #A80036; stroke-width: 1.0;"/><polygon fill="none" points="663.7531,147.169,647.9265,133.0792,669.0852,134.2241,663.7531,147.169" style="stroke: #A80036; stroke-width: 1.0;"/><path d="M933.5682,312.9979 C937.2703,327.6427 940.9363,342.1453 943.8632,353.7234 " fill="none" style="stroke: #A80036; stroke-width: 1.0;"/><polygon fill="none" points="926.6789,314.3063,928.5637,293.2007,940.2519,310.8752,926.6789,314.3063" style="stroke: #A80036; stroke-width: 1.0;"/><path d="M1002.3533,304.629 C1026.9712,322.0559 1052.37,340.0356 1071.8634,353.8349 " fill="none" style="stroke: #A80036; stroke-width: 1.0;"/><polygon fill="none" points="998.219,310.2788,985.9395,293.0098,1006.3079,298.8521,998.219,310.2788" style="stroke: #A80036; stroke-width: 1.0;"/></g></svg>