<?xml version="1.0" encoding="UTF-8" standalone="yes"?><svg xmlns="http://www.w3.org/2000/svg" xmlns:xlink="http://www.w3.org/1999/xlink" height="301px" style="width:476px;height:301px;" version="1.1" viewBox="0 0 476 301" width="476px"><defs><filter height="300%" id="f1" width="300%" x="-1" y="-1"><feGaussianBlur result="blurOut" stdDeviation="2.0"/><feColorMatrix in="blurOut" result="blurOut2" type="matrix" values="0 0 0 0 0 0 0 0 0 0 0 0 0 0 0 0 0 0 .4 0"/><feOffset dx="4.0" dy="4.0" in="blurOut2" result="blurOut3"/><feBlend in="SourceGraphic" in2="blurOut3" mode="normal"/></filter></defs><g><rect fill="#FEFECE" filter="url(#f1)" height="48" style="stroke: #A80036; stroke-width: 1.5;" width="102" x="185.5" y="244"/><ellipse cx="200.5" cy="260" fill="#ADD1B2" rx="11" ry="11" style="stroke: #A80036; stroke-width: 1.0;"/><path d="M203.4688,265.6406 Q202.8906,265.9375 202.25,266.0859 Q201.6094,266.2344 200.9063,266.2344 Q198.4063,266.2344 197.0859,264.5859 Q195.7656,262.9375 195.7656,259.8125 Q195.7656,256.6875 197.0859,255.0313 Q198.4063,253.375 200.9063,253.375 Q201.6094,253.375 202.2578,253.5313 Q202.9063,253.6875 203.4688,253.9844 L203.4688,256.7031 Q202.8438,256.125 202.25,255.8516 Q201.6563,255.5781 201.0313,255.5781 Q199.6875,255.5781 199,256.6484 Q198.3125,257.7188 198.3125,259.8125 Q198.3125,261.9063 199,262.9766 Q199.6875,264.0469 201.0313,264.0469 Q201.6563,264.0469 202.25,263.7734 Q202.8438,263.5 203.4688,262.9219 L203.4688,265.6406 Z "/><text fill="#000000" font-family="sans-serif" font-size="12" lengthAdjust="spacingAndGlyphs" textLength="70" x="214.5" y="264.1543">Experiment</text><line style="stroke: #A80036; stroke-width: 1.5;" x1="186.5" x2="286.5" y1="276" y2="276"/><line style="stroke: #A80036; stroke-width: 1.5;" x1="186.5" x2="286.5" y1="284" y2="284"/><polygon fill="#FBFB77" filter="url(#f1)" points="6,8,6,184.4609,467,184.4609,467,18,457,8,6,8" style="stroke: #A80036; stroke-width: 1.0;"/><polygon fill="#FBFB77" points="6,8,6,184.4609,232.5,184.4609,236.5,243.693,240.5,184.4609,467,184.4609,467,18,457,8,6,8" style="stroke: #A80036; stroke-width: 1.0;"/><line style="stroke: #A80036; stroke-width: 1.0;" x1="457" x2="457" y1="8" y2="18"/><line style="stroke: #A80036; stroke-width: 1.0;" x1="467" x2="457" y1="18" y2="18"/><text fill="#000000" font-family="sans-serif" font-size="13" font-weight="bold" lengthAdjust="spacingAndGlyphs" textLength="78" x="12" y="25.0669">trainModel</text><text fill="#000000" font-family="sans-serif" font-size="13" lengthAdjust="spacingAndGlyphs" textLength="362" x="90" y="25.0669">(Optimizer o, InputReader r, int epochs, int activations )</text><text fill="#000000" font-family="sans-serif" font-size="13" lengthAdjust="spacingAndGlyphs" textLength="0" x="28" y="40.1997"/><text fill="#000000" font-family="sans-serif" font-size="13" font-weight="bold" lengthAdjust="spacingAndGlyphs" textLength="21" x="28" y="40.1997">for</text><text fill="#000000" font-family="sans-serif" font-size="13" lengthAdjust="spacingAndGlyphs" textLength="70" x="53" y="40.1997">epoch := 1</text><text fill="#000000" font-family="sans-serif" font-size="13" font-weight="bold" lengthAdjust="spacingAndGlyphs" textLength="15" x="127" y="40.1997">to</text><text fill="#000000" font-family="sans-serif" font-size="13" lengthAdjust="spacingAndGlyphs" textLength="50" x="146" y="40.1997">epochs:</text><text fill="#000000" font-family="sans-serif" font-size="13" lengthAdjust="spacingAndGlyphs" textLength="0" x="44" y="55.3325"/><text fill="#000000" font-family="sans-serif" font-size="13" font-style="italic" font-weight="bold" lengthAdjust="spacingAndGlyphs" textLength="226" x="44" y="55.3325">// get and shuffle training data</text><text fill="#000000" font-family="sans-serif" font-size="13" lengthAdjust="spacingAndGlyphs" textLength="256" x="44" y="70.4653">batches := r.getTrainingBatchIterator();</text><text fill="#000000" font-family="sans-serif" font-size="13" lengthAdjust="spacingAndGlyphs" textLength="0" x="16" y="85.5981"/><text fill="#000000" font-family="sans-serif" font-size="13" lengthAdjust="spacingAndGlyphs" textLength="0" x="44" y="100.731"/><text fill="#000000" font-family="sans-serif" font-size="13" font-style="italic" font-weight="bold" lengthAdjust="spacingAndGlyphs" textLength="315" x="44" y="100.731">// for a single epoch train using all batches</text><text fill="#000000" font-family="sans-serif" font-size="13" lengthAdjust="spacingAndGlyphs" textLength="217" x="44" y="115.8638">o.model.setInTrainingMode(true);</text><text fill="#000000" font-family="sans-serif" font-size="13" lengthAdjust="spacingAndGlyphs" textLength="0" x="44" y="130.9966"/><text fill="#000000" font-family="sans-serif" font-size="13" font-weight="bold" lengthAdjust="spacingAndGlyphs" textLength="21" x="44" y="130.9966">for</text><text fill="#000000" font-family="sans-serif" font-size="13" lengthAdjust="spacingAndGlyphs" textLength="36" x="69" y="130.9966">batch</text><text fill="#000000" font-family="sans-serif" font-size="13" font-weight="bold" lengthAdjust="spacingAndGlyphs" textLength="13" x="109" y="130.9966">in</text><text fill="#000000" font-family="sans-serif" font-size="13" lengthAdjust="spacingAndGlyphs" textLength="51" x="126" y="130.9966">batches</text><text fill="#000000" font-family="sans-serif" font-size="13" lengthAdjust="spacingAndGlyphs" textLength="289" x="60" y="146.1294">BatchResult result := o.trainOnBatch(batch);</text><text fill="#000000" font-family="sans-serif" font-size="13" lengthAdjust="spacingAndGlyphs" textLength="210" x="60" y="161.2622">onBatchFinished(o,batch,result);</text><text fill="#000000" font-family="sans-serif" font-size="13" lengthAdjust="spacingAndGlyphs" textLength="174" x="44" y="176.395">onEpochFinished(o,epoch);</text></g></svg>