<?xml version="1.0" encoding="UTF-8" standalone="yes"?><svg xmlns="http://www.w3.org/2000/svg" xmlns:xlink="http://www.w3.org/1999/xlink" height="165px" style="width:385px;height:165px;" version="1.1" viewBox="0 0 385 165" width="385px"><defs><filter height="300%" id="f1" width="300%" x="-1" y="-1"><feGaussianBlur result="blurOut" stdDeviation="2.0"/><feColorMatrix in="blurOut" result="blurOut2" type="matrix" values="0 0 0 0 0 0 0 0 0 0 0 0 0 0 0 0 0 0 .4 0"/><feOffset dx="4.0" dy="4.0" in="blurOut2" result="blurOut3"/><feBlend in="SourceGraphic" in2="blurOut3" mode="normal"/></filter></defs><g><rect fill="#FEFECE" filter="url(#f1)" height="48" style="stroke: #A80036; stroke-width: 1.5;" width="133" x="124.5" y="8"/><ellipse cx="139.5" cy="24" fill="#ADD1B2" rx="11" ry="11" style="stroke: #A80036; stroke-width: 1.0;"/><path d="M142.4688,29.6406 Q141.8906,29.9375 141.25,30.0859 Q140.6094,30.2344 139.9063,30.2344 Q137.4063,30.2344 136.0859,28.5859 Q134.7656,26.9375 134.7656,23.8125 Q134.7656,20.6875 136.0859,19.0313 Q137.4063,17.375 139.9063,17.375 Q140.6094,17.375 141.2578,17.5313 Q141.9063,17.6875 142.4688,17.9844 L142.4688,20.7031 Q141.8438,20.125 141.25,19.8516 Q140.6563,19.5781 140.0313,19.5781 Q138.6875,19.5781 138,20.6484 Q137.3125,21.7188 137.3125,23.8125 Q137.3125,25.9063 138,26.9766 Q138.6875,28.0469 140.0313,28.0469 Q140.6563,28.0469 141.25,27.7734 Q141.8438,27.5 142.4688,26.9219 L142.4688,29.6406 Z "/><text fill="#000000" font-family="sans-serif" font-size="12" lengthAdjust="spacingAndGlyphs" textLength="101" x="153.5" y="28.1543">GradientDescent</text><line style="stroke: #A80036; stroke-width: 1.5;" x1="125.5" x2="256.5" y1="40" y2="40"/><line style="stroke: #A80036; stroke-width: 1.5;" x1="125.5" x2="256.5" y1="48" y2="48"/><polygon fill="#FBFB77" filter="url(#f1)" points="6,116,6,156.2656,376,156.2656,376,126,366,116,6,116" style="stroke: #A80036; stroke-width: 1.0;"/><polygon fill="#FBFB77" points="6,116,6,156.2656,376,156.2656,376,126,366,116,195,116,191,56.1211,187,116,6,116" style="stroke: #A80036; stroke-width: 1.0;"/><line style="stroke: #A80036; stroke-width: 1.0;" x1="366" x2="366" y1="116" y2="126"/><line style="stroke: #A80036; stroke-width: 1.0;" x1="376" x2="366" y1="126" y2="126"/><text fill="#000000" font-family="sans-serif" font-size="13" font-weight="bold" lengthAdjust="spacingAndGlyphs" textLength="51" x="12" y="133.0669">update</text><text fill="#000000" font-family="sans-serif" font-size="13" lengthAdjust="spacingAndGlyphs" textLength="26" x="63" y="133.0669">(...):</text><text fill="#000000" font-family="sans-serif" font-size="13" lengthAdjust="spacingAndGlyphs" textLength="333" x="28" y="148.1997">array := array - (learningRate/batchSize) * gradient</text></g></svg>