<?xml version="1.0" encoding="UTF-8" standalone="yes"?><svg xmlns="http://www.w3.org/2000/svg" xmlns:xlink="http://www.w3.org/1999/xlink" height="212px" style="width:1500px;height:212px;" version="1.1" viewBox="0 0 1500 212" width="1500px"><defs><filter height="300%" id="f1" width="300%" x="-1" y="-1"><feGaussianBlur result="blurOut" stdDeviation="2.0"/><feColorMatrix in="blurOut" result="blurOut2" type="matrix" values="0 0 0 0 0 0 0 0 0 0 0 0 0 0 0 0 0 0 .4 0"/><feOffset dx="4.0" dy="4.0" in="blurOut2" result="blurOut3"/><feBlend in="SourceGraphic" in2="blurOut3" mode="normal"/></filter></defs><g><rect fill="#90EE90" filter="url(#f1)" height="86.4141" style="stroke: #A80036; stroke-width: 1.5;" width="295" x="812.5" y="8"/><rect fill="#90EE90" height="32" style="stroke: #A80036; stroke-width: 1.5;" width="295" x="812.5" y="8"/><ellipse cx="926.75" cy="24" fill="#ADD1B2" rx="11" ry="11" style="stroke: #A80036; stroke-width: 1.0;"/><path d="M929.7188,29.6406 Q929.1406,29.9375 928.5,30.0859 Q927.8594,30.2344 927.1563,30.2344 Q924.6563,30.2344 923.3359,28.5859 Q922.0156,26.9375 922.0156,23.8125 Q922.0156,20.6875 923.3359,19.0313 Q924.6563,17.375 927.1563,17.375 Q927.8594,17.375 928.5078,17.5313 Q929.1563,17.6875 929.7188,17.9844 L929.7188,20.7031 Q929.0938,20.125 928.5,19.8516 Q927.9063,19.5781 927.2813,19.5781 Q925.9375,19.5781 925.25,20.6484 Q924.5625,21.7188 924.5625,23.8125 Q924.5625,25.9063 925.25,26.9766 Q925.9375,28.0469 927.2813,28.0469 Q927.9063,28.0469 928.5,27.7734 Q929.0938,27.5 929.7188,26.9219 L929.7188,29.6406 Z "/><text fill="#000000" font-family="sans-serif" font-size="12" lengthAdjust="spacingAndGlyphs" textLength="58" x="947.25" y="28.1543">Optimizer</text><line style="stroke: #A80036; stroke-width: 1.5;" x1="813.5" x2="1106.5" y1="40" y2="40"/><text fill="#000000" font-family="sans-serif" font-size="11" lengthAdjust="spacingAndGlyphs" textLength="114" x="818.5" y="54.2104">double learningRate</text><line style="stroke: #A80036; stroke-width: 1.5;" x1="813.5" x2="1106.5" y1="60.8047" y2="60.8047"/><ellipse cx="823.5" cy="72.707" fill="#84BE84" rx="3" ry="3" style="stroke: #038048; stroke-width: 1.0;"/><text fill="#000000" font-family="sans-serif" font-size="11" lengthAdjust="spacingAndGlyphs" textLength="67" x="832.5" y="75.0151">BatchResult</text><text fill="#000000" font-family="sans-serif" font-size="11" font-weight="bold" lengthAdjust="spacingAndGlyphs" textLength="81" x="903.5" y="75.0151">trainOnBatch</text><text fill="#000000" font-family="sans-serif" font-size="11" lengthAdjust="spacingAndGlyphs" textLength="112" x="984.5" y="75.0151">( TensorPair batch )</text><ellipse cx="823.5" cy="85.5117" fill="#84BE84" rx="3" ry="3" style="stroke: #038048; stroke-width: 1.0;"/><text fill="#000000" font-family="sans-serif" font-size="11" lengthAdjust="spacingAndGlyphs" textLength="67" x="832.5" y="87.8198">BatchResult</text><text fill="#000000" font-family="sans-serif" font-size="11" font-weight="bold" lengthAdjust="spacingAndGlyphs" textLength="49" x="903.5" y="87.8198">validate</text><text fill="#000000" font-family="sans-serif" font-size="11" lengthAdjust="spacingAndGlyphs" textLength="149" x="952.5" y="87.8198">( List&lt;TensorPair&gt; batch )</text><rect fill="#90EE90" filter="url(#f1)" height="48" style="stroke: #A80036; stroke-width: 1.5;" width="58" x="685" y="27"/><rect fill="#90EE90" height="32" style="stroke: #A80036; stroke-width: 1.5;" width="58" x="685" y="27"/><ellipse cx="700" cy="43" fill="#ADD1B2" rx="11" ry="11" style="stroke: #A80036; stroke-width: 1.0;"/><path d="M702.9688,48.6406 Q702.3906,48.9375 701.75,49.0859 Q701.1094,49.2344 700.4063,49.2344 Q697.9063,49.2344 696.5859,47.5859 Q695.2656,45.9375 695.2656,42.8125 Q695.2656,39.6875 696.5859,38.0313 Q697.9063,36.375 700.4063,36.375 Q701.1094,36.375 701.7578,36.5313 Q702.4063,36.6875 702.9688,36.9844 L702.9688,39.7031 Q702.3438,39.125 701.75,38.8516 Q701.1563,38.5781 700.5313,38.5781 Q699.1875,38.5781 698.5,39.6484 Q697.8125,40.7188 697.8125,42.8125 Q697.8125,44.9063 698.5,45.9766 Q699.1875,47.0469 700.5313,47.0469 Q701.1563,47.0469 701.75,46.7734 Q702.3438,46.5 702.9688,45.9219 L702.9688,48.6406 Z "/><text fill="#000000" font-family="sans-serif" font-size="12" lengthAdjust="spacingAndGlyphs" textLength="26" x="714" y="47.1543">SGD</text><line style="stroke: #A80036; stroke-width: 1.5;" x1="686" x2="742" y1="59" y2="59"/><line style="stroke: #A80036; stroke-width: 1.5;" x1="686" x2="742" y1="67" y2="67"/><rect fill="#FFA500" filter="url(#f1)" height="60.8047" style="stroke: #A80036; stroke-width: 1.5;" width="314" x="1177" y="20.5"/><rect fill="#FFA500" height="32" style="stroke: #A80036; stroke-width: 1.5;" width="314" x="1177" y="20.5"/><ellipse cx="1303.25" cy="36.5" fill="#B4A7E5" rx="11" ry="11" style="stroke: #A80036; stroke-width: 1.0;"/><path d="M1299.6719,32.2656 L1299.6719,30.1094 L1307.0625,30.1094 L1307.0625,32.2656 L1304.5938,32.2656 L1304.5938,40.3438 L1307.0625,40.3438 L1307.0625,42.5 L1299.6719,42.5 L1299.6719,40.3438 L1302.1406,40.3438 L1302.1406,32.2656 L1299.6719,32.2656 Z "/><text fill="#000000" font-family="sans-serif" font-size="12" font-style="italic" lengthAdjust="spacingAndGlyphs" textLength="53" x="1323.75" y="40.6543">Validator</text><line style="stroke: #A80036; stroke-width: 1.5;" x1="1178" x2="1490" y1="52.5" y2="52.5"/><line style="stroke: #A80036; stroke-width: 1.5;" x1="1178" x2="1490" y1="60.5" y2="60.5"/><ellipse cx="1188" cy="72.4023" fill="#84BE84" rx="3" ry="3" style="stroke: #038048; stroke-width: 1.0;"/><text fill="#000000" font-family="sans-serif" font-size="11" lengthAdjust="spacingAndGlyphs" textLength="38" x="1197" y="74.7104">double</text><text fill="#000000" font-family="sans-serif" font-size="11" font-weight="bold" lengthAdjust="spacingAndGlyphs" textLength="49" x="1239" y="74.7104">validate</text><text fill="#000000" font-family="sans-serif" font-size="11" lengthAdjust="spacingAndGlyphs" textLength="197" x="1288" y="74.7104">( Tensor label, Tensor prediction );</text><rect fill="#FFA500" filter="url(#f1)" height="48" style="stroke: #A80036; stroke-width: 1.5;" width="97" x="1354.5" y="155"/><rect fill="#FFA500" height="32" style="stroke: #A80036; stroke-width: 1.5;" width="97" x="1354.5" y="155"/><ellipse cx="1369.5" cy="171" fill="#ADD1B2" rx="11" ry="11" style="stroke: #A80036; stroke-width: 1.0;"/><path d="M1372.4688,176.6406 Q1371.8906,176.9375 1371.25,177.0859 Q1370.6094,177.2344 1369.9063,177.2344 Q1367.4063,177.2344 1366.0859,175.5859 Q1364.7656,173.9375 1364.7656,170.8125 Q1364.7656,167.6875 1366.0859,166.0313 Q1367.4063,164.375 1369.9063,164.375 Q1370.6094,164.375 1371.2578,164.5313 Q1371.9063,164.6875 1372.4688,164.9844 L1372.4688,167.7031 Q1371.8438,167.125 1371.25,166.8516 Q1370.6563,166.5781 1370.0313,166.5781 Q1368.6875,166.5781 1368,167.6484 Q1367.3125,168.7188 1367.3125,170.8125 Q1367.3125,172.9063 1368,173.9766 Q1368.6875,175.0469 1370.0313,175.0469 Q1370.6563,175.0469 1371.25,174.7734 Q1371.8438,174.5 1372.4688,173.9219 L1372.4688,176.6406 Z "/><text fill="#000000" font-family="sans-serif" font-size="12" lengthAdjust="spacingAndGlyphs" textLength="65" x="1383.5" y="175.1543">Regression</text><line style="stroke: #A80036; stroke-width: 1.5;" x1="1355.5" x2="1450.5" y1="187" y2="187"/><line style="stroke: #A80036; stroke-width: 1.5;" x1="1355.5" x2="1450.5" y1="195" y2="195"/><rect fill="#FFA500" filter="url(#f1)" height="48" style="stroke: #A80036; stroke-width: 1.5;" width="109" x="1210.5" y="155"/><rect fill="#FFA500" height="32" style="stroke: #A80036; stroke-width: 1.5;" width="109" x="1210.5" y="155"/><ellipse cx="1225.5" cy="171" fill="#ADD1B2" rx="11" ry="11" style="stroke: #A80036; stroke-width: 1.0;"/><path d="M1228.4688,176.6406 Q1227.8906,176.9375 1227.25,177.0859 Q1226.6094,177.2344 1225.9063,177.2344 Q1223.4063,177.2344 1222.0859,175.5859 Q1220.7656,173.9375 1220.7656,170.8125 Q1220.7656,167.6875 1222.0859,166.0313 Q1223.4063,164.375 1225.9063,164.375 Q1226.6094,164.375 1227.2578,164.5313 Q1227.9063,164.6875 1228.4688,164.9844 L1228.4688,167.7031 Q1227.8438,167.125 1227.25,166.8516 Q1226.6563,166.5781 1226.0313,166.5781 Q1224.6875,166.5781 1224,167.6484 Q1223.3125,168.7188 1223.3125,170.8125 Q1223.3125,172.9063 1224,173.9766 Q1224.6875,175.0469 1226.0313,175.0469 Q1226.6563,175.0469 1227.25,174.7734 Q1227.8438,174.5 1228.4688,173.9219 L1228.4688,176.6406 Z "/><text fill="#000000" font-family="sans-serif" font-size="12" lengthAdjust="spacingAndGlyphs" textLength="77" x="1239.5" y="175.1543">Classification</text><line style="stroke: #A80036; stroke-width: 1.5;" x1="1211.5" x2="1318.5" y1="187" y2="187"/><line style="stroke: #A80036; stroke-width: 1.5;" x1="1211.5" x2="1318.5" y1="195" y2="195"/><rect fill="#90EE90" filter="url(#f1)" height="60.8047" style="stroke: #A80036; stroke-width: 1.5;" width="199" x="399.5" y="20.5"/><rect fill="#90EE90" height="32" style="stroke: #A80036; stroke-width: 1.5;" width="199" x="399.5" y="20.5"/><ellipse cx="414.5" cy="36.5" fill="#ADD1B2" rx="11" ry="11" style="stroke: #A80036; stroke-width: 1.0;"/><path d="M417.4688,42.1406 Q416.8906,42.4375 416.25,42.5859 Q415.6094,42.7344 414.9063,42.7344 Q412.4063,42.7344 411.0859,41.0859 Q409.7656,39.4375 409.7656,36.3125 Q409.7656,33.1875 411.0859,31.5313 Q412.4063,29.875 414.9063,29.875 Q415.6094,29.875 416.2578,30.0313 Q416.9063,30.1875 417.4688,30.4844 L417.4688,33.2031 Q416.8438,32.625 416.25,32.3516 Q415.6563,32.0781 415.0313,32.0781 Q413.6875,32.0781 413,33.1484 Q412.3125,34.2188 412.3125,36.3125 Q412.3125,38.4063 413,39.4766 Q413.6875,40.5469 415.0313,40.5469 Q415.6563,40.5469 416.25,40.2734 Q416.8438,40 417.4688,39.4219 L417.4688,42.1406 Z "/><text fill="#000000" font-family="sans-serif" font-size="12" lengthAdjust="spacingAndGlyphs" textLength="167" x="428.5" y="40.6543">Supplier&lt;UpdateFunction&gt;</text><line style="stroke: #A80036; stroke-width: 1.5;" x1="400.5" x2="597.5" y1="52.5" y2="52.5"/><line style="stroke: #A80036; stroke-width: 1.5;" x1="400.5" x2="597.5" y1="60.5" y2="60.5"/><ellipse cx="410.5" cy="72.4023" fill="#84BE84" rx="3" ry="3" style="stroke: #038048; stroke-width: 1.0;"/><text fill="#000000" font-family="sans-serif" font-size="11" lengthAdjust="spacingAndGlyphs" textLength="87" x="419.5" y="74.7104">UpdateFunction</text><text fill="#000000" font-family="sans-serif" font-size="11" font-weight="bold" lengthAdjust="spacingAndGlyphs" textLength="20" x="510.5" y="74.7104">get</text><text fill="#000000" font-family="sans-serif" font-size="11" lengthAdjust="spacingAndGlyphs" textLength="8" x="530.5" y="74.7104">()</text><rect fill="#90EE90" filter="url(#f1)" height="73.6094" style="stroke: #A80036; stroke-width: 1.5;" width="324" x="6" y="14"/><rect fill="#90EE90" height="32" style="stroke: #A80036; stroke-width: 1.5;" width="324" x="6" y="14"/><ellipse cx="115.25" cy="30" fill="#B4A7E5" rx="11" ry="11" style="stroke: #A80036; stroke-width: 1.0;"/><path d="M111.6719,25.7656 L111.6719,23.6094 L119.0625,23.6094 L119.0625,25.7656 L116.5938,25.7656 L116.5938,33.8438 L119.0625,33.8438 L119.0625,36 L111.6719,36 L111.6719,33.8438 L114.1406,33.8438 L114.1406,25.7656 L111.6719,25.7656 Z "/><text fill="#000000" font-family="sans-serif" font-size="12" font-style="italic" lengthAdjust="spacingAndGlyphs" textLength="97" x="135.75" y="34.1543">UpdateFunction</text><line style="stroke: #A80036; stroke-width: 1.5;" x1="7" x2="329" y1="46" y2="46"/><line style="stroke: #A80036; stroke-width: 1.5;" x1="7" x2="329" y1="54" y2="54"/><text fill="#000000" font-family="sans-serif" font-size="11" lengthAdjust="spacingAndGlyphs" textLength="24" x="12" y="68.2104">void</text><text fill="#000000" font-family="sans-serif" font-size="11" font-weight="bold" lengthAdjust="spacingAndGlyphs" textLength="43" x="40" y="68.2104">update</text><text fill="#000000" font-family="sans-serif" font-size="11" lengthAdjust="spacingAndGlyphs" textLength="184" x="83" y="68.2104">(INDArray array, boolean isBias,</text><text fill="#000000" font-family="sans-serif" font-size="11" lengthAdjust="spacingAndGlyphs" textLength="312" x="12" y="81.0151">double learningRate, int batchSize, INDArray gradient);</text><rect fill="#90EE90" filter="url(#f1)" height="48" style="stroke: #A80036; stroke-width: 1.5;" width="133" x="101.5" y="155"/><rect fill="#90EE90" height="32" style="stroke: #A80036; stroke-width: 1.5;" width="133" x="101.5" y="155"/><ellipse cx="116.5" cy="171" fill="#ADD1B2" rx="11" ry="11" style="stroke: #A80036; stroke-width: 1.0;"/><path d="M119.4688,176.6406 Q118.8906,176.9375 118.25,177.0859 Q117.6094,177.2344 116.9063,177.2344 Q114.4063,177.2344 113.0859,175.5859 Q111.7656,173.9375 111.7656,170.8125 Q111.7656,167.6875 113.0859,166.0313 Q114.4063,164.375 116.9063,164.375 Q117.6094,164.375 118.2578,164.5313 Q118.9063,164.6875 119.4688,164.9844 L119.4688,167.7031 Q118.8438,167.125 118.25,166.8516 Q117.6563,166.5781 117.0313,166.5781 Q115.6875,166.5781 115,167.6484 Q114.3125,168.7188 114.3125,170.8125 Q114.3125,172.9063 115,173.9766 Q115.6875,175.0469 117.0313,175.0469 Q117.6563,175.0469 118.25,174.7734 Q118.8438,174.5 119.4688,173.9219 L119.4688,176.6406 Z "/><text fill="#000000" font-family="sans-serif" font-size="12" lengthAdjust="spacingAndGlyphs" textLength="101" x="130.5" y="175.1543">GradientDescent</text><line style="stroke: #A80036; stroke-width: 1.5;" x1="102.5" x2="233.5" y1="187" y2="187"/><line style="stroke: #A80036; stroke-width: 1.5;" x1="102.5" x2="233.5" y1="195" y2="195"/><path d="M743.3086,51 C759.567,51 775.8253,51 792.0837,51 " fill="none" style="stroke: #A80036; stroke-width: 1.0;"/><polygon fill="none" points="792.2944,43.9999,812.2943,51,792.2943,57.9999,792.2944,43.9999" style="stroke: #A80036; stroke-width: 1.0;"/><path d="M1360.085,99.3896 C1370.3284,118.3918 1381.6258,139.3493 1390.0571,154.9899 " fill="none" style="stroke: #A80036; stroke-width: 1.0; stroke-dasharray: 7.0,7.0;"/><polygon fill="none" points="1353.8557,102.5858,1350.5272,81.6592,1366.1792,95.9426,1353.8557,102.5858" style="stroke: #A80036; stroke-width: 1.0;"/><path d="M1307.915,99.3896 C1297.6716,118.3918 1286.3742,139.3493 1277.9429,154.9899 " fill="none" style="stroke: #A80036; stroke-width: 1.0; stroke-dasharray: 7.0,7.0;"/><polygon fill="none" points="1301.8208,95.9426,1317.4728,81.6592,1314.1443,102.5858,1301.8208,95.9426" style="stroke: #A80036; stroke-width: 1.0;"/><path d="M1107.5547,51 C1128.9826,51 1150.4105,51 1171.8385,51 " fill="none" style="stroke: #A80036; stroke-width: 1.0;"/><polygon fill="#A80036" points="1176.992,51,1167.992,47,1171.992,51,1167.992,55,1176.992,51" style="stroke: #A80036; stroke-width: 1.0;"/><path d="M603.7931,51 C633.553,51 663.5898,51 684.7725,51 " fill="none" style="stroke: #A80036; stroke-width: 1.0;"/><polygon fill="#A80036" points="598.6327,51,607.6327,55,603.6327,51,607.6327,47,598.6327,51" style="stroke: #A80036; stroke-width: 1.0;"/><text fill="#000000" font-family="sans-serif" font-size="13" lengthAdjust="spacingAndGlyphs" textLength="50" x="616.75" y="44.0669">updater</text><path d="M335.3587,51 C357.1982,51 378.9945,51 399.2262,51 " fill="none" style="stroke: #A80036; stroke-width: 1.0;"/><polygon fill="#A80036" points="330.1062,51,339.1062,55,335.1062,51,339.1062,47,330.1062,51" style="stroke: #A80036; stroke-width: 1.0;"/><text fill="#000000" font-family="sans-serif" font-size="13" lengthAdjust="spacingAndGlyphs" textLength="30" x="349.75" y="44.0669">uses</text><path d="M168,108.2137 C168,124.672 168,141.7358 168,154.9852 " fill="none" style="stroke: #A80036; stroke-width: 1.0;"/><polygon fill="none" points="161.0001,108.0229,168,88.0229,175.0001,108.0229,161.0001,108.0229" style="stroke: #A80036; stroke-width: 1.0;"/></g></svg>