<?xml version="1.0" encoding="UTF-8" standalone="yes"?><svg xmlns="http://www.w3.org/2000/svg" xmlns:xlink="http://www.w3.org/1999/xlink" height="315px" style="width:278px;height:315px;" version="1.1" viewBox="0 0 278 315" width="278px"><defs><filter height="300%" id="f1" width="300%" x="-1" y="-1"><feGaussianBlur result="blurOut" stdDeviation="2.0"/><feColorMatrix in="blurOut" result="blurOut2" type="matrix" values="0 0 0 0 0 0 0 0 0 0 0 0 0 0 0 0 0 0 .4 0"/><feOffset dx="4.0" dy="4.0" in="blurOut2" result="blurOut3"/><feBlend in="SourceGraphic" in2="blurOut3" mode="normal"/></filter></defs><g><rect fill="#ADD8E6" filter="url(#f1)" height="48" style="stroke: #A80036; stroke-width: 1.5;" width="72" x="17" y="133"/><rect fill="#ADD8E6" height="32" style="stroke: #A80036; stroke-width: 1.5;" width="72" x="17" y="133"/><ellipse cx="32" cy="149" fill="#ADD1B2" rx="11" ry="11" style="stroke: #A80036; stroke-width: 1.0;"/><path d="M34.9688,154.6406 Q34.3906,154.9375 33.75,155.0859 Q33.1094,155.2344 32.4063,155.2344 Q29.9063,155.2344 28.5859,153.5859 Q27.2656,151.9375 27.2656,148.8125 Q27.2656,145.6875 28.5859,144.0313 Q29.9063,142.375 32.4063,142.375 Q33.1094,142.375 33.7578,142.5313 Q34.4063,142.6875 34.9688,142.9844 L34.9688,145.7031 Q34.3438,145.125 33.75,144.8516 Q33.1563,144.5781 32.5313,144.5781 Q31.1875,144.5781 30.5,145.6484 Q29.8125,146.7188 29.8125,148.8125 Q29.8125,150.9063 30.5,151.9766 Q31.1875,153.0469 32.5313,153.0469 Q33.1563,153.0469 33.75,152.7734 Q34.3438,152.5 34.9688,151.9219 L34.9688,154.6406 Z "/><text fill="#000000" font-family="sans-serif" font-size="12" lengthAdjust="spacingAndGlyphs" textLength="40" x="46" y="153.1543">Tensor</text><line style="stroke: #A80036; stroke-width: 1.5;" x1="18" x2="88" y1="165" y2="165"/><line style="stroke: #A80036; stroke-width: 1.5;" x1="18" x2="88" y1="173" y2="173"/><rect fill="#ADD8E6" filter="url(#f1)" height="48" style="stroke: #A80036; stroke-width: 1.5;" width="110" x="159" y="133"/><rect fill="#ADD8E6" height="32" style="stroke: #A80036; stroke-width: 1.5;" width="110" x="159" y="133"/><ellipse cx="174" cy="149" fill="#ADD1B2" rx="11" ry="11" style="stroke: #A80036; stroke-width: 1.0;"/><path d="M176.9688,154.6406 Q176.3906,154.9375 175.75,155.0859 Q175.1094,155.2344 174.4063,155.2344 Q171.9063,155.2344 170.5859,153.5859 Q169.2656,151.9375 169.2656,148.8125 Q169.2656,145.6875 170.5859,144.0313 Q171.9063,142.375 174.4063,142.375 Q175.1094,142.375 175.7578,142.5313 Q176.4063,142.6875 176.9688,142.9844 L176.9688,145.7031 Q176.3438,145.125 175.75,144.8516 Q175.1563,144.5781 174.5313,144.5781 Q173.1875,144.5781 172.5,145.6484 Q171.8125,146.7188 171.8125,148.8125 Q171.8125,150.9063 172.5,151.9766 Q173.1875,153.0469 174.5313,153.0469 Q175.1563,153.0469 175.75,152.7734 Q176.3438,152.5 176.9688,151.9219 L176.9688,154.6406 Z "/><text fill="#000000" font-family="sans-serif" font-size="12" lengthAdjust="spacingAndGlyphs" textLength="78" x="188" y="153.1543">TensorShape</text><line style="stroke: #A80036; stroke-width: 1.5;" x1="160" x2="268" y1="165" y2="165"/><line style="stroke: #A80036; stroke-width: 1.5;" x1="160" x2="268" y1="173" y2="173"/><rect fill="#ADD8E6" filter="url(#f1)" height="48" style="stroke: #A80036; stroke-width: 1.5;" width="94" x="6" y="8"/><rect fill="#ADD8E6" height="32" style="stroke: #A80036; stroke-width: 1.5;" width="94" x="6" y="8"/><ellipse cx="21" cy="24" fill="#ADD1B2" rx="11" ry="11" style="stroke: #A80036; stroke-width: 1.0;"/><path d="M23.9688,29.6406 Q23.3906,29.9375 22.75,30.0859 Q22.1094,30.2344 21.4063,30.2344 Q18.9063,30.2344 17.5859,28.5859 Q16.2656,26.9375 16.2656,23.8125 Q16.2656,20.6875 17.5859,19.0313 Q18.9063,17.375 21.4063,17.375 Q22.1094,17.375 22.7578,17.5313 Q23.4063,17.6875 23.9688,17.9844 L23.9688,20.7031 Q23.3438,20.125 22.75,19.8516 Q22.1563,19.5781 21.5313,19.5781 Q20.1875,19.5781 19.5,20.6484 Q18.8125,21.7188 18.8125,23.8125 Q18.8125,25.9063 19.5,26.9766 Q20.1875,28.0469 21.5313,28.0469 Q22.1563,28.0469 22.75,27.7734 Q23.3438,27.5 23.9688,26.9219 L23.9688,29.6406 Z "/><text fill="#000000" font-family="sans-serif" font-size="12" lengthAdjust="spacingAndGlyphs" textLength="62" x="35" y="28.1543">TensorPair</text><line style="stroke: #A80036; stroke-width: 1.5;" x1="7" x2="99" y1="40" y2="40"/><line style="stroke: #A80036; stroke-width: 1.5;" x1="7" x2="99" y1="48" y2="48"/><rect fill="#ADD8E6" filter="url(#f1)" height="48" style="stroke: #A80036; stroke-width: 1.5;" width="86" x="10" y="258"/><rect fill="#ADD8E6" height="32" style="stroke: #A80036; stroke-width: 1.5;" width="86" x="10" y="258"/><ellipse cx="25" cy="274" fill="#B4A7E5" rx="11" ry="11" style="stroke: #A80036; stroke-width: 1.0;"/><path d="M21.4219,269.7656 L21.4219,267.6094 L28.8125,267.6094 L28.8125,269.7656 L26.3438,269.7656 L26.3438,277.8438 L28.8125,277.8438 L28.8125,280 L21.4219,280 L21.4219,277.8438 L23.8906,277.8438 L23.8906,269.7656 L21.4219,269.7656 Z "/><text fill="#000000" font-family="sans-serif" font-size="12" font-style="italic" lengthAdjust="spacingAndGlyphs" textLength="54" x="39" y="278.1543">INDArray</text><line style="stroke: #A80036; stroke-width: 1.5;" x1="11" x2="95" y1="290" y2="290"/><line style="stroke: #A80036; stroke-width: 1.5;" x1="11" x2="95" y1="298" y2="298"/><path d="M53,181.1013 C53,201.5931 53,231.0764 53,252.8844 " fill="none" style="stroke: #A80036; stroke-width: 1.0;"/><polygon fill="#A80036" points="53,257.9727,57,248.9727,53,252.9727,49,248.9727,53,257.9727" style="stroke: #A80036; stroke-width: 1.0;"/><text fill="#000000" font-family="sans-serif" font-size="13" lengthAdjust="spacingAndGlyphs" textLength="43" x="54" y="224.0669">values</text><path d="M89.1621,157 C110.6815,157 132.2009,157 153.7202,157 " fill="none" style="stroke: #A80036; stroke-width: 1.0;"/><polygon fill="#A80036" points="158.8958,157,149.8958,153,153.8958,157,149.8958,161,158.8958,157" style="stroke: #A80036; stroke-width: 1.0;"/><path d="M29.981,56.1799 C23.1485,64.8978 16.5467,75.2533 13,86 C8.1001,100.8469 14.8841,116.106 24.1778,128.6549 " fill="none" style="stroke: #A80036; stroke-width: 1.0;"/><polygon fill="#A80036" points="27.4125,132.8021,25.0315,123.2454,24.3375,128.8595,18.7234,128.1654,27.4125,132.8021" style="stroke: #A80036; stroke-width: 1.0;"/><text fill="#000000" font-family="sans-serif" font-size="13" lengthAdjust="spacingAndGlyphs" textLength="33" x="14" y="99.0669">input</text><path d="M53,56.1013 C53,76.5931 53,106.0764 53,127.8844 " fill="none" style="stroke: #A80036; stroke-width: 1.0;"/><polygon fill="#A80036" points="53,132.9727,57,123.9727,53,127.9727,49,123.9727,53,132.9727" style="stroke: #A80036; stroke-width: 1.0;"/><text fill="#000000" font-family="sans-serif" font-size="13" lengthAdjust="spacingAndGlyphs" textLength="42" x="54" y="99.0669">output</text></g></svg>